<svg width="16" height="16" viewBox="0 0 16 16" fill="none" xmlns="http://www.w3.org/2000/svg">
<path d="M15.6 14.5737C15.6 15.1405 15.1405 15.6 14.5737 15.6H2.61765C2.47646 15.6 2.37751 15.4609 2.42761 15.3289C3.27525 13.0953 4.98511 10.8667 6.0753 9.69146C6.34948 9.3959 6.73826 9.24295 7.14141 9.24295H9.12608C9.19068 9.24292 9.24305 9.19139 9.24305 9.12678V7.10783C9.24305 6.73652 9.37212 6.37408 9.62962 6.10657C11.3009 4.37027 13.6395 3.17925 15.3254 2.52882C15.4585 2.47746 15.6 2.57672 15.6 2.71942V14.5737ZM12.8658 0C13.0087 0 13.1078 0.142267 13.0562 0.275483C11.9508 3.13364 10.3834 5.08612 9.41393 6.00424C9.16081 6.24394 8.81961 6.35704 8.47101 6.35704H6.41557C6.35096 6.35704 6.29853 6.4094 6.29851 6.474V8.47752C6.29851 8.89258 6.1339 9.29368 5.83105 9.5775C3.59366 11.6742 1.55397 12.6761 0.268862 13.1438C0.137078 13.1917 0 13.0927 0 12.9525V1.02631C0 0.459497 0.459497 1.98363e-08 1.02631 0H12.8658Z" fill="url(#paint0_linear_333_1504)"/>
<defs>
<linearGradient id="paint0_linear_333_1504" x1="7.79999" y1="0" x2="7.79999" y2="15.6" gradientUnits="userSpaceOnUse">
<stop stop-color="#527ABC"/>
<stop offset="1" stop-color="#30547B"/>
</linearGradient>
</defs>
</svg>
