<svg xmlns="http://www.w3.org/2000/svg" width="270" height="180" viewBox="0 0 270 180"><style>.s0{fill:#242e3d}.s1{fill:#f90}</style><path d="M87 19h14c2.73 5.84 4.36 11.72 5.92 17.96l.79 3.14q1.25 4.92 2.48 9.84.84 3.35 1.69 6.69Q113.95 64.82 116 73q.22-.94.44-1.92 2.28-9.85 4.58-19.7l1.7-7.36q1.22-5.29 2.46-10.57.38-1.64.76-3.33l.73-3.1.63-2.72c.7-2.3.7-2.3 2.7-5.3 3.26-.29 3.26-.29 7.13-.19l3.88.08q1.47.06 2.99.11c2.76 5.84 4.27 11.68 5.7 17.96l.73 3.14 2.26 9.84q.77 3.35 1.55 6.69Q156.13 64.82 158 73c4.31-14.83 4.31-14.83 8.27-29.76q.25-1 .5-2.02 1.01-3.99 1.99-7.98.75-3 1.51-6 .42-1.72.86-3.5C172 21 172 21 174 19c3.04-.2 3.04-.2 6.63-.13l3.6.06q1.36.03 2.77.07c1.35 4.06.05 6.88-1.21 10.8q-.36 1.17-.74 2.38-1.2 3.85-2.42 7.69-.84 2.65-1.66 5.3-1.26 4.01-2.52 8.03-2.63 8.35-5.15 16.73-.61 2.02-1.22 4.03-1.12 3.72-2.22 7.44-.5 1.64-1.02 3.33-.43 1.42-.86 2.89c-1.02 2.48-1.86 3.76-3.98 5.38-2.81.4-2.81.4-6 .37q-1.57.02-3.19.03c-3.24-.46-3.82-.9-5.81-3.4-.82-2.26-.82-2.26-1.44-4.93l-.73-3.03-.75-3.27-.79-3.35q-1.25-5.3-2.48-10.61-.84-3.59-1.69-7.18Q139.04 48.82 137 40q-.43 1.72-.87 3.5-1.62 6.49-3.24 12.99-.7 2.79-1.39 5.59-1.95 7.85-3.94 15.69-.74 2.95-1.45 5.91-.37 1.47-.75 2.99l-.59 2.46C124 91 124 91 121 93c-2.59.3-2.59.3-5.5.31q-1.43.03-2.91.05c-3.1-.43-3.66-.96-5.59-3.36-.99-2.43-.99-2.43-1.87-5.37q-.51-1.67-1.04-3.38-.54-1.82-1.09-3.69l-1.76-5.8q-.62-2.07-1.24-4.13-2.47-8.19-5.04-16.35-1.14-3.66-2.27-7.32-.75-2.39-1.5-4.77-1.06-3.37-2.1-6.75-.32-.99-.64-2.01C87.18 26.27 87 23.52 87 19" class="s0"/><path d="M9 114c5.37.49 9.37 1.92 14.13 4.5 58.82 30.4 125.12 35.02 188.07 15.44 5.67-1.81 11.13-3.83 16.55-6.3 2.76-.79 4.51-.44 7.25.36 1 1 1 1 1.3 3.36-.3 2.64-.3 2.64-1.82 4.31-40.16 26.61-89.86 36.03-137.17 27.01C67.1 156.4 29.21 142.63 9 118z" class="s1"/><path d="M50.5 16.56q1.37.01 2.79.03c8.35.21 15.01 1.38 21.15 7.41 7.53 10.48 6.02 25.05 6.07 37.32q.03 3.66.08 7.32 0 1.1-.01 2.23c.08 5.1 1.26 8.53 3.42 13.13.06 2.69.06 2.69-1 5-3.06 2.71-4.96 3.94-9.06 4.19-4.13-1.67-5.73-4.44-7.94-8.19q-.74.59-1.5 1.21-1.02.79-2.06 1.6-.99.78-2.01 1.58c-5.87 3.88-10.99 5.14-17.87 5.05l-2.27-.02c-7.02-.21-11.42-1.63-16.6-6.67-4.29-6.98-6.03-13.73-4.22-21.85 1.92-5.94 5.24-10.71 10.46-14.19C40.65 46.24 52.6 47.93 64 50c.6-9 .6-9-3-17-5.44-4.29-12.43-3.7-19-3-3.46.91-6.77 1.98-10.12 3.22-3.1.84-4.84.67-7.88-.22-.35-3.07-.49-5.94 0-9 6.65-6.65 17.54-7.54 26.5-7.44m-13.37 47c-2.69 3.43-2.53 6.73-2.46 10.96.19 2.73.19 2.73 2.27 5.54 4.76 3.01 8.9 3.44 14.43 2.56C57.31 81.02 60.6 78.04 64 73c1.26-2.52 1.1-4.31 1.06-7.13l-.02-2.75L65 61c-9.6-2.6-19.67-4.28-27.88 2.56zM242 21c2.45 3.67 2.24 5.67 2 10l-1 2c-3.05-.44-5.81-.93-8.71-2.02-3.83-1.14-7.39-1.31-11.35-1.29-1.04-.03-1.04-.03-2.11-.05-4.44-.01-7.36.53-10.83 3.36-1.34 3.36-1.34 3.36-1 7 4.67 6.44 12.06 7.61 19.37 9.79 8.18 2.61 14.23 6.08 18.63 13.65 2.02 7.2 1.39 12.98-2 19.56-4.56 6.77-10.78 9.99-18.7 11.68-10.27 1.43-20.72.38-30.3-3.68-2.84-2.88-3.92-4.14-4.31-8.19C192 80 192 80 193 78c7.29.75 7.29.75 10.85 1.99 9.16 2.94 18.29 2.62 27.15-.99 1.29-5.83 1.29-5.83-.31-11.31-5.05-3.17-10.57-5-16.21-6.84-8.32-2.77-14.21-5.27-19.35-12.47-2.68-5.66-2.95-11.35-1.13-17.38 2.48-6.02 7.76-10.16 13.56-12.87 11.15-3.65 24-2.64 34.44 2.87" class="s0"/><path d="M240.63 108.69q1.2-.03 2.44-.05c5.4-.01 9.13.87 13.93 3.36 1.64 1.64 1.25 3.43 1.31 5.69-.17 12.97-5.3 25.84-13.93 35.56-2.73 2.01-4.07 2.22-7.38 1.75.75-5.9 2.74-11.11 4.83-16.63 3.02-8.05 3.02-8.05 2.17-16.37-6.96-2.59-13.69-2.04-21-1.63q-1.73.09-3.5.18-4.25.21-8.5.45c.75-4.81.75-4.81 2.97-6.51 1.25-.58 1.25-.58 2.53-1.18q1.22-.59 2.47-1.2c7.16-2.63 14.06-3.45 21.66-3.42" class="s1"/></svg>