<svg xmlns="http://www.w3.org/2000/svg" width="72" height="14" fill="none" viewBox="0 0 72 14"><g clip-path="url(#a)"><path fill="#fff" d="M21.021 7.082c1.606 0 2.66-.929 2.66-2.735 0-1.882-.866-2.735-2.672-2.735h-3.476v8.53h1.631v-3.06zm-1.857-1.38v-2.71h2.02c.602 0 .803.238.803.803v1.053c0 .565-.238.854-.803.854zm7.268-4.09h-1.568v8.53h1.569v-3.7c0-.929.514-1.568 1.38-1.568.752 0 1.04.439 1.04 1.191v4.078h1.57v-4.19c0-1.468-.666-2.36-2.096-2.36-.903 0-1.506.402-1.895 1.08zm7.186 8.53V3.745H32.05v6.399zm.026-8.53h-1.619v1.392h1.619zm3.892 3.35h1.594V3.743h-1.594V1.612h-1.568v2.132h-1.267v1.217h1.267v5.182h3.162V8.926h-1.594zm6.71 5.18h1.569V3.745h-1.569v3.701c0 .929-.527 1.569-1.367 1.569-.74 0-1.004-.452-1.004-1.192V3.744h-1.568v4.19c0 1.481.69 2.36 2.057 2.36.904 0 1.494-.39 1.882-1.08zm3.248 0h1.569V4.975h2.007v-1.23h-3.576zm5.808-4.14c0-.69.54-1.191 1.255-1.191s1.254.502 1.254 1.192v.226h-2.509zm-1.631.93c0 2.006 1.066 3.361 2.886 3.361 1.543 0 2.61-.828 2.81-2.245h-1.568c-.076.652-.552 1.028-1.23 1.028s-1.267-.439-1.267-1.204v-.427h4.115v-.79c0-1.756-1.13-3.061-2.86-3.061-1.732 0-2.886 1.33-2.886 3.337"/><path fill="#28ef8f" d="M5.864 6.49 3.857 8.45l2.007 1.962L7.871 8.45z"/><path fill="#28ef8f" d="m.61 5.278 2.007 1.96 3.248-3.173L9.112 7.24l2.007-1.961L5.865.143z"/></g><defs><clipPath id="a"><path fill="#fff" d="M0 .143h72v13.714H0z"/></clipPath></defs></svg>