<svg xmlns="http://www.w3.org/2000/svg" width="76" height="23" fill="none" viewBox="0 0 76 23"><path fill="#e4002b" d="m71.721 1.558-1.17 5.258a.55.55 0 0 1-.535.432h-1.662a.55.55 0 0 1-.548-.584v-.097c.08-1.715-1.003-2.996-3.455-2.996-4.077 0-7.041 3.343-7.43 7.734-.401 4.534 2.771 7.17 7.16 7.169a17 17 0 0 0 5.033-.75.55.55 0 0 1 .706.626l-.52 2.717a.64.64 0 0 1-.433.491c-.9.287-3.426.96-7.294.96-9.187 0-12.914-5.28-12.338-10.662C49.752 7.063 52.927 0 65.442 0a21.6 21.6 0 0 1 5.824.797.64.64 0 0 1 .455.76M19.486.809l-.304 1.371a.6.6 0 0 0 .412.705c.529.204.646.711.185 1.091l-7.687 6.384 1.32-6.016c.225-.923.959-1.298 1.423-1.453l.075-.024a.6.6 0 0 0 .405-.438l.315-1.426a.54.54 0 0 0-.532-.657h-9.91a.6.6 0 0 0-.583.468l-.32 1.443a.59.59 0 0 0 .39.686l.098.033c.622.244 1.343.791 1.04 2.232l-2.37 10.808C2.826 18.968 1.824 19.57.87 19.68H.84a.61.61 0 0 0-.52.467l-.306 1.385a.572.572 0 0 0 .56.693H10.99a.54.54 0 0 0 .528-.416l.36-1.62a.55.55 0 0 0-.336-.63l-.068-.027c-.527-.214-1.247-.669-1.063-1.527l1.212-5.527c4.154 7.573 5.525 9.755 10.508 9.754h4.496a.54.54 0 0 0 .529-.423l.315-1.404a.584.584 0 0 0-.554-.713c-1.126-.017-1.678-.278-2.797-1.716l-5.773-7.808 7.503-6.231c1.006-.787 2.234-1.007 2.914-1.098l.069-.007a.55.55 0 0 0 .486-.429l.307-1.384a.55.55 0 0 0-.537-.674h-9.026a.595.595 0 0 0-.577.463m27.758 6.004H49a.55.55 0 0 0 .533-.427l1.194-5.376a.545.545 0 0 0-.535-.664H31.734a.6.6 0 0 0-.584.468l-.317 1.436a.57.57 0 0 0 .365.662l.062.022c.607.232 1.454.82 1.085 2.264L28.727 21.57a.543.543 0 0 0 .532.662h8.302a.546.546 0 0 0 .532-.426l.361-1.635a.52.52 0 0 0-.295-.587l-.08-.037c-.527-.26-1.31-.852-1.048-1.998.03-.154.817-3.702.817-3.702h7.06a.55.55 0 0 0 .534-.433l.664-2.99a.55.55 0 0 0-.536-.667h-6.817l1.273-5.798 4.763-.006c1.54 0 2.009.803 1.92 2.173 0 0 0 .017-.008.072a.55.55 0 0 0 .543.614M76 3.252a1.77 1.77 0 0 1-3.01 1.226 1.77 1.77 0 0 1-.532-1.226 1.77 1.77 0 0 1 1.77-1.731A1.77 1.77 0 0 1 76 3.251m-.26 0a1.51 1.51 0 1 0-3.019 0 1.51 1.51 0 1 0 3.019 0m-1.04.858a.4.4 0 0 1-.086-.19l-.062-.278c-.052-.19-.148-.242-.346-.242h-.361v.71h-.296V2.341h.763c.402 0 .611.173.611.503a.44.44 0 0 1-.406.445.346.346 0 0 1 .315.293l.079.32q.024.119.105.208zm-.427-1.535h-.428v.59h.428c.235 0 .346-.104.346-.304 0-.199-.11-.286-.346-.286"/></svg>