<svg xmlns="http://www.w3.org/2000/svg" width="3672" height="835" viewBox="0 0 3672 835"><style>.s0{fill:#034482}.s1{fill:#054683}.s7{fill:#3d839d}.s14{fill:#3f859e}.s17{fill:#468da1}.s18{fill:#40869e}.s20{fill:#42899f}.s24{fill:#478ea1}.s25{fill:#468ea1}.s26{fill:#4890a2}.s27{fill:#3b809c}.s39{fill:#397f9b}.s42{fill:#458da1}.s46{fill:#478fa1}.s49{fill:#5295a7}.s50{fill:#377b9a}.s53{fill:#c2d2e0}.s61{fill:#387d9a}.s62{fill:#448ba0}.s69{fill:#4a92a3}.s70{fill:#4991a3}.s76{fill:#387c9b}.s80{fill:#458ca0}.s82{fill:#367a9a}.s88{fill:#377c9a}.s90{fill:#488fa2}.s95{fill:#357999}.s96{fill:#357899}.s97{fill:#4b94a4}.s100{fill:#347999}</style><path d="M1951 250h52l1 119 14-4c4.01-.81 7.97-1.55 12-2.19q1.55-.25 3.14-.5c7.63-1.2 15.14-2.07 22.86-2.31q1.47-.08 2.99-.16c27.89-.85 56.55 8.24 77.39 27.12 6.04 5.75 11.31 11.89 15.62 19.04q.62 1.02 1.26 2.08c15.52 25.87 20.86 52.82 18.74 82.92l-1 1q.06 1.72.13 3.5c.09 19.18-7.04 37.69-17.31 53.59-1.92 2.81-1.92 2.81-2.82 5.91h-2q-.4.88-.82 1.79c-6.32 11.8-19.61 20.24-31.18 26.21q-1.03.54-2.09 1.1c-23.32 12.22-45.54 14.6-71.76 14.42q-4.02-.03-8.04 0c-28.17.18-56.28-2.49-82.11-14.52-1.14-9.25-1.22-18.46-1.31-27.76q-.04-2.71-.07-5.42-.08-7.41-.15-14.82-.04-4.73-.09-9.46c-.53-52.33-.5-104.67-.45-157l.02-39.27q.02-40.14.05-80.27m53 168v127c7.74 2.58 7.74 2.58 15.56 4.62l3.13.73c17.76 3.48 40.9 4.05 57.31-4.35 1.37-.67 1.37-.67 2.77-1.35 14.11-7.23 23.74-18.61 29.3-33.52 6.58-22.16 7.05-48.78-3.82-69.5-9.43-16.7-21.54-27.38-40.05-32.73-23.33-5.21-41.62 1.24-64.2 9.1" class="s0"/><path d="M1665.06 357.88c1.35 0 1.35 0 2.74.01h3.09q1.66 0 3.36.01c1.7 0 1.7 0 3.43.01q5.44.01 10.88.03 3.68.01 7.36.01 9.04.02 18.08.05.04 35.35.05 70.71.01 16.42.03 32.84.01 14.33.01 28.67l.02 15.14c.02 18.56.02 37.12-.55 55.68l-.12 3.84c-.25 7.07-.71 14.08-1.44 21.12-25.83 8.37-52.17 13.23-79.37 13.19h-2.18c-30.52-.07-55.92-2.62-83.45-16.19v-2q-1.07-.42-2.18-.85c-10.89-4.44-17.36-10.37-24.82-19.15l-1.96-2.06c-15.82-16.64-24.08-44.17-24.21-66.61q0-1.07-.01-2.17-.01-3.46-.01-6.91v-2.38c.04-16.47.36-32.23 6.19-47.87l1.3-3.51c1.84-4.85 3.77-9.67 5.7-14.49h2q.12-1.05.25-2.12c.93-3.57 2.52-5.97 4.75-8.88h2q.39-.87.8-1.76c1.26-2.35 2.66-4.08 4.45-6.05 2.58-2.86 2.58-2.86 5.04-5.8 15.18-18.65 39.43-26.93 62.55-29.73 24.77-2.42 49.67.14 72.16 11.34q.09-1.38.18-2.81.13-1.79.26-3.63c.12-1.79.12-1.79.24-3.62.42-3.89.42-3.89 3.38-4.06M1579 416v2q-.85.39-1.72.8c-2.45 1.29-4.53 2.76-6.72 4.45q-1.1.84-2.24 1.7c-13.03 11.51-18.96 31.05-20.21 47.87-.89 18.13 1.42 35.99 11.89 51.18q1.05 1.9 2.06 3.81c3.15 5.19 6.77 8.18 11.94 11.19q1.88 1.46 3.75 2.94c13.27 10.05 29.18 10.29 45.19 10.31 1.02 0 1.02 0 2.07.01 17.44.35 17.44.35 33.99-4.26.46-2 .46-2 .59-4.41q.11-1.36.23-2.77.43-6.62.68-13.26l.12-3.25c1.17-34.09 1.58-68.2 1.38-102.31q-3.85-1.93-7.7-3.85c-1.08-.54-1.08-.54-2.18-1.1-24.1-12.05-48.59-13.32-73.12-1.05" class="s1"/><path d="M3195.02 357.88q1.32 0 2.68.01h3.04q1.62 0 3.3.01c1.66 0 1.66 0 3.35.01q5.34.01 10.67.03 3.61.01 7.22.01 8.86.02 17.72.05.04 30.99.05 61.97.01 14.4.03 28.79.01 12.59.01 25.17l.02 13.26c.03 19.16-.12 38.3-.58 57.46q-.03 1.31-.07 2.66c-.32 12.91-.75 25.8-1.46 38.69q-4.47 1.45-8.94 2.88-1.24.4-2.52.81c-9.85 3.15-19.68 4.88-29.92 6.37l-3.5.53c-13 1.91-25.62 2.57-38.75 2.54q-4.1-.01-8.19.01c-12.69 0-25.03-.02-37.35-3.39-2.59-.69-5.13-1.18-7.77-1.62-24.41-4.86-48.67-22.11-62.37-42.57-5.97-9.22-10.52-18.6-14.07-29l-.79-2.33c-1.27-3.89-2.04-7.09-1.83-11.23l-1-1c-1.04-6.52-1.15-13.11-1.13-19.69q0-1.3-.01-2.64 0-2.73.01-5.46.01-4.2-.01-8.39 0-2.66.01-5.32-.01-1.26-.01-2.54c.03-5.85.03-5.85 1.14-6.96v-2.75c0-22.86 14.89-47.81 30.39-63.66 8.31-8.22 17.36-14.15 27.61-19.59q1.22-.72 2.48-1.46c24.7-13.97 62.31-11.82 88.56-4.76 6.22 1.81 12.1 4.47 17.96 7.22q.09-1.38.18-2.81.13-1.79.26-3.63c.12-1.79.12-1.79.24-3.62.42-3.89.42-3.89 3.34-4.06M3096 426c-5.47 6.85-11.19 14.65-14 23q.49 1.48 1 3c-.99.5-.99.5-2 1-.56 1.8-.56 1.8-.85 3.98q-.19 1.24-.39 2.51-.19 1.33-.39 2.7-.19 1.36-.39 2.75c-1.71 12.66-.92 24.49 1.02 37.06l1 7h2q-.49 1.48-1 3c4.27 14.18 17.67 25.89 30.12 32.71 12.53 6.18 24.64 7.82 38.5 7.67l2.11-.02c18.93.52 18.93.52 36.27-5.36.57-2.03.57-2.03.65-4.48q.1-1.49.2-3.03.47-10.9.71-21.8.03-1.35.07-2.73c.7-30.98.46-61.98.37-92.96q-3.79-1.91-7.57-3.82-1.06-.53-2.14-1.08c-27.73-13.93-62.27-14.96-85.29 8.9" style="fill:#064683"/><path d="m2757 364 3.47.77c19.82 5.25 40.6 19.96 51.53 37.23v2h2v3h2c.56 1.33.56 1.33 1.12 2.69q1.54 3.61 3.24 7.14c11.66 24.37 12.73 45.45 14.64 73.17l-171 1c3.7 18.51 9.63 37.7 25.78 49.28 24.41 16.03 56.2 15.45 84.07 10.18 12.63-2.62 24.49-6.41 36.28-11.65 1.29-.57 1.29-.57 2.61-1.15l2.28-1.04c1.98-.62 1.98-.62 4.98.38.77 6.11 1.14 12.04 1.1 18.19 0 1.25 0 1.25-.01 2.52q-.01 3.93-.03 7.85-.01 2.69-.01 5.37-.02 6.54-.05 13.07-3.29 1.69-6.6 3.37-.91.47-1.86.95c-6.27 3.18-12.71 5.09-19.54 6.68-1.3.31-1.3.31-2.63.62-6.77 1.56-13.56 3-20.37 4.38-1.78.38-1.78.38-3.61.76-30.79 5.5-75.51 1.82-102.18-16.26q-3.62-2.55-7.15-5.23c-2.96-2.29-2.96-2.29-5.96-3.95q-1.04-.65-2.1-1.32v-2l-1.76-.77c-6.67-3.66-12.7-11.19-17.24-17.23v-2h-2v-3q-.99-.49-2-1c-4.65-7.95-8.37-16.34-11.31-25.06q-.35-1-.7-2.03c-4.12-12.78-5.55-25.21-5.43-38.53q.01-1.11.01-2.25c.17-23.26 5.27-44.56 16.43-65.13.99-.5.99-.5 2-1 .66-2.53.66-2.53 1-5h2q.17-.89.35-1.82c1.05-3.53 3.71-5.83 6.21-8.43l1.67-1.75q1.64-1.73 3.29-3.45 1.81-1.91 3.56-3.86c5.69-6.15 12.67-10.58 19.92-14.69h2v-2c27.36-13.96 60.25-15.92 90-9m-67 57q-.97.64-1.97 1.31c-5.48 3.79-8.85 8.1-12.4 13.69l-1.58 2.37c-2.67 4.1-4.78 7.85-6.05 12.63 5.76.99 11.32 1.14 17.16 1.11h3.02q4.91 0 9.82-.01 3.41-.01 6.83-.01 8.97 0 17.93-.02 9.16-.02 18.32-.02 17.96-.02 35.92-.05-.68-3.86-1.38-7.71-.19-1.08-.38-2.19c-1.37-7.48-3.93-13.43-9.24-19.1h-2q-.1-.88-.21-1.78c-1.73-4.84-7.46-6.99-11.79-9.22-21.66-9.35-43.54-4.16-62 9" class="s1"/><path d="M1132 265h52v139c43.4-.04 43.4-.04 86.79-.09 8.38 0 8.38 0 12.29-.01q4.12 0 8.24-.01 6.23-.01 12.45 0 1.84-.01 3.74-.01h6.31c2.18.12 2.18.12 3.18 1.12v47c-65.84.5-65.84.5-133 1v149h-52V452H999v-48h133z" style="fill:#0a4985"/><path d="M3433 365h53c.01 4.46.03 8.92.04 13.52q.08 22.16.2 44.32.06 13.43.11 26.87.03 11.71.1 23.43.04 6.19.05 12.39.01 5.85.05 11.7.02 2.13.02 4.26c-.02 12.59.57 26.55 7.43 37.51q.5.99 1.02 2c3.68 6.84 8.89 11.26 16.28 13.79 15.85 4.7 29.62 5.53 45.7 1.21q1.48-.4 3.01-.81c8.18-2.57 14.26-6.77 18.81-14.13 5.48-10.58 7.25-20.65 7.46-32.45l.06-2.56.16-8.74.06-3.1c.81-43.07 1.05-86.14 1.44-129.21h52v168h-2c-.17 1.76-.17 1.76-.34 3.55-1.54 12.15-7.82 22.33-15.66 31.45q-.92 1.09-1.86 2.2c-12.43 13.53-32.33 22.65-50.2 25.36-1.27.2-1.27.2-2.56.39-11.8 1.76-23.44 2.31-35.38 2.05l-2.05-.04c-28.15-.64-54.67-6.84-75.74-26.57-2.21-2.38-4.23-4.81-6.21-7.39q-.8-.98-1.63-1.99c-3.65-4.89-5.92-10.32-8.18-15.95q-.45-1.1-.92-2.24c-3.21-8.38-3.4-17.06-3.58-25.95q-.04-1.29-.07-2.62l-.18-8.6-.06-3.05c-.55-26.71-.5-53.42-.45-80.14q.02-11.7.02-23.41.02-17.52.05-35.05" class="s0"/><path d="M2359 203h52c1.65 1.65 1.12 3.62 1.13 5.83v17.28q.01 7.47 0 14.94v16.07q.01 15.77.01 31.53-.01 12.8-.01 25.61v3.67q0 3.7.01 7.39 0 34.68-.01 69.36-.01 29.8 0 59.59.01 34.56 0 69.11v11.02q0 12.8.01 25.59 0 15.59-.01 31.17v15.92q.01 7.28 0 14.55v14.54c-.02 4.72-.02 4.72-1.13 5.83h-52z" style="fill:#0e4c87"/><path d="M406 292h44l1 115c33.72-.04 33.72-.04 67.43-.09 6.52 0 6.52 0 9.58-.01q3.2 0 6.39-.01 4.85-.01 9.69 0 1.42-.01 2.88-.01h4.93c2.1.12 2.1.12 6.1 1.12v43c-2.33 1.17-3.67 1.12-6.26 1.12h-2.71q-1.47 0-2.99-.01h-3.18q-5.12 0-10.24-.01-3.16 0-6.31-.01-11.72-.01-23.44-.03L450 452v115h-45V453c-52.47-.5-52.47-.5-106-1v-44c7.1-.65 13.89-1.14 20.97-1.11h2.81q4.54 0 9.08.01 3.17.01 6.34.01 8.3 0 16.59.02 8.49.02 16.98.02 16.61.02 33.23.05v-1.78q-.04-21.38-.05-42.76-.01-10.34-.03-20.68-.01-9.97-.01-19.94l-.02-7.62q-.01-5.32 0-10.64-.01-1.59-.01-3.22v-5.46c.12-1.9.12-1.9 1.12-2.9" style="fill:#fe7a26"/><path d="M208 494h39v102c31.22-.04 31.22-.04 62.44-.09 6.02 0 6.02 0 8.84-.01q2.97 0 5.93-.01 4.48-.01 8.96 0 1.32-.01 2.68-.01c6.04.01 6.04.01 7.15 1.12q.15 3.75.13 7.5 0 1.12.01 2.28 0 2.38-.01 4.77-.01 3.66.01 7.33 0 2.31-.01 4.62.01 1.1.01 2.23c-.03 5.16-.03 5.16-1.14 6.27q-4.42.14-8.83.11h-2.86q-4.59 0-9.19-.01-2.83 0-5.66-.01-10.51-.01-21.02-.03L247 632v102h-39V632h-96v-36h96z" style="fill:#ea263a"/><path d="M610 123h39v103c31.22-.04 31.22-.04 62.44-.09 6.02 0 6.02 0 8.84-.01q2.97 0 5.93-.01 4.48-.01 8.96 0 1.32-.01 2.68-.01c6.04.01 6.04.01 7.15 1.12v34h-96c.01 7.42.02 14.85.04 22.5q0 7.03.01 14.06.01 11.18.03 22.36.01 9 .01 18.01l.02 6.89q.01 4.81 0 9.61.01 1.43.01 2.91v4.93C649 364 649 364 648 365h-38V261h-96c0-34 0-34 1-35q4.42-.14 8.83-.11h2.86q4.59 0 9.19.01 2.83 0 5.66.01 10.51.01 21.02.03L610 226z" class="s7"/><path d="M610 494h39v102h96v34h-96v104h-39V630h-96v-34h96z" style="fill:#0a4986"/><path d="M208 123h37v104h97v32h-97v105h-37l-1-104-95-1v-32l95-1z" style="fill:#fe9420"/><path d="M417.12 638.86q1.06 0 2.16.01 1.09 0 2.21-.01 2.31 0 4.63.01 3.56.01 7.11-.01 2.24 0 4.49.01 1.06-.01 2.16-.01c5.01.03 5.01.03 6.12 1.14q.13 3.31.11 6.63v2.1q0 3.45-.01 6.9-.01 2.38-.01 4.77 0 6.29-.02 12.58-.02 7.54-.02 15.08-.02 11.47-.05 22.94h65v31h-65v72h-35v-72h-64c0-30 0-30 1-31q2.95-.13 5.9-.11h3.82q2.08 0 4.16.01 2.12.01 4.23.01 5.58 0 11.16.02 5.69.02 11.38.02 11.18.02 22.35.05 0-1.32-.01-2.69-.03-12.51-.04-25.03-.01-6.44-.03-12.87-.01-6.21-.01-12.41l-.02-4.75q-.01-3.31 0-6.62-.01-1.88-.01-3.81c.2-4.76 1.95-3.94 6.24-3.96" style="fill:#5b6a97"/><path d="M725.12 342.86q1.06 0 2.16.01 1.09 0 2.21-.01 2.31 0 4.63.01 3.56.01 7.11-.01 2.24 0 4.49.01 1.06-.01 2.16-.01c5.01.03 5.01.03 6.12 1.14q.13 3.31.11 6.63v2.1q0 3.45-.01 6.9-.01 2.38-.01 4.77 0 6.29-.02 12.58-.02 7.54-.02 15.08-.02 11.47-.05 22.94h65v30h-65v73h-35v-73h-65v-30h65c-.01-5.11-.02-10.23-.04-15.5q0-4.84-.01-9.69-.01-7.7-.03-15.4-.01-6.21-.01-12.41l-.02-4.75q-.01-3.31 0-6.62-.01-1.88-.01-3.81c.2-4.76 1.95-3.94 6.24-3.96" style="fill:#5b6a98"/><path d="M101 347h26v70h66v23c-1.57 1.57-3.18 1.21-5.36 1.3l-2.81.12-3.08.12c-1.58.06-1.58.06-3.18.13l-6.7.26q-5.05.2-10.09.41l-6.53.26-2.99.12c-8.44.32-16.8.28-25.26.28v69h-26v-69H37v-26h64z" style="fill:#4e94a5"/><path d="M415 51h27v69h64v24h-64v71h-27l-1-70-63-1v-24h64z" style="fill:#5397a7"/><path d="M610 123h39v103c31.22-.04 31.22-.04 62.44-.09 6.02 0 6.02 0 8.84-.01q2.97 0 5.93-.01 4.48-.01 8.96 0 1.32-.01 2.68-.01c6.04.01 6.04.01 7.15 1.12v34h-96c.01 7.42.02 14.85.04 22.5q0 7.03.01 14.06.01 11.18.03 22.36.01 9 .01 18.01l.02 6.89q.01 4.81 0 9.61.01 1.43.01 2.91v4.93C649 364 649 364 648 365h-38V261h-96c0-34 0-34 1-35q4.42-.14 8.83-.11h2.81q4.62 0 9.24.01 3.19.01 6.38.01 8.43 0 16.85.02 8.58.02 17.17.02 16.86.02 33.72.05v-30h2q.09 1.04.18 2.12.13 1.36.26 2.75.12 1.36.24 2.75c.19 2.39.19 2.39 1.32 4.38h-2l.02 1.8q.03 4.04.04 8.07.02 1.4.03 2.84 0 1.34.01 2.72.01 1.23.01 2.51C612 228 612 228 611 230q-2.96-.99-6-2 .49.99 1 2 .49.99 1 2l-3 3q.99.49 2 1-1.97.49-4 1 .49 1.48 1 3h2v-2h2v-4q.49-.99 1-2h2v2c1.49.5 1.49.5 3 1h-3c-1.16 3.48-.71 5.46 0 9q-.49-.99-1-2-.99-.49-2-1 .49-.99 1-2h-2c-.5 1.49-.5 1.49-1 3h-2v4h4v2q.99.49 2 1-2.46-.49-5-1v2c1.49.5 1.49.5 3 1l-2 2v3h-3v2h5q.49-.99 1-2 .49 1.48 1 3c1.49.99 1.49.99 3 2 .37 1.85.37 1.85.36 4.15q.01 1.3.01 2.64-.01 1.42-.03 2.89v3.05q-.01 5-.05 10-.01 3.46-.01 6.92-.02 9.12-.07 18.23-.05 9.3-.06 18.6-.05 18.26-.15 36.52l35-1 1-103h5q1.09-2.97 2-6-.49-.99-1-2c1.94-.56 1.94-.56 4-1l1 1q-.49-1.97-1-4h2v-2q-.99-.49-2-1 .31-1.17.62-2.38.19-1.29.38-2.62l-2-2q.99-.49 2-1c1.09-2.97 1.04-3.88 0-7q-1.48.49-3 1v-2c-2.48.49-2.48.49-5 1v-2h-4V124h-37z" class="s14"/><path d="M556.98 226.9q1.4.01 2.84.01 1.44.01 2.93.03 1.47 0 2.98.01 3.64.02 7.27.05v2l2.19-.63c3.26-.43 4.89.21 7.81 1.63l-1-1q1.97-.49 4-1v2h2v-2c6.62-.25 6.62-.25 10 2q.49-.99 1-2 1.97.99 4 2-1.93 1.01-3.88 2-1.07.55-2.17 1.12C595 234 595 234 593 234l1.5 2.19c1.58 2.96 1.78 4.52 1.5 7.81-1.49-.5-1.49-.5-3-1q.28.92.56 1.87C594 247 594 247 593 249c.49 1.49.49 1.49 1 3l-2.88-.06c-3.03-.17-3.03-.17-5.12 1.06l1 1h2.37c2.97 0 4.99.68 7.63 2q-.49-2.46-1-5 2.96.49 6 1c.49 1.49.49 1.49 1 3q-2.46.49-5 1v2c-3.75 1.12-3.75 1.12-6 0v2h-37c-.5-1.98-.5-1.98-1-4q-.99-.49-2-1v2h-2v-3q-.49.99-1 2c-2.44.75-2.44.75-5 1l-2-2h2v-2l2-1q-1.97-1.48-4-3 .49 2.46 1 5h-2v2q-1.48.49-3 1 .49-1.97 1-4-1.17-.22-2.38-.44C534 252 534 252 532 251q.49-2.46 1-5-.99.49-2 1v4h-3v2l2 1-1 1q1.97.49 4 1 .49-1.48 1-3l2 1c.62 2.56.62 2.56 1 5-1.98.49-1.98.49-4 1v-2l-11 1v-2h-3l2 1v2c-1.94.56-1.94.56-4 1-1-1-1-1-1.11-3.96q0-1.93.01-3.92 0-1.02.01-2.08.01-3.3.03-6.6.01-2.24.01-4.47.02-5.48.05-10.97c2.37-.63 2.37-.63 5-1q.98.99 2 2c-.99.49-.99.49-2 1v2h2q.49-1.48 1-3h2l-1-1q1.97-.49 4-1v2h2v-2c6.62-.25 6.62-.25 10 2q.49-.99 1-2 2.96.99 6 2v-2c3.07-.9 5.79-1.12 8.98-1.1" style="fill:#3c819c"/><path d="M610 196h2q.09 1.04.18 2.12.13 1.36.26 2.75.12 1.36.24 2.75c.19 2.39.19 2.39 1.32 4.38h-2l.02 1.8q.03 4.04.04 8.07.02 1.4.03 2.84 0 1.34.01 2.72.01 1.23.01 2.51C612 228 612 228 611 230q-2.96-.99-6-2 .49.99 1 2 .49.99 1 2l-3 3q.99.49 2 1-1.97.49-4 1 .49 1.48 1 3h2v-2h2v-4c.5-.99.5-.99 1-2h2v2c1.49.5 1.49.5 3 1h-3c-1.16 3.48-.71 5.46 0 9q-.49-.99-1-2-.99-.49-2-1c.5-.99.5-.99 1-2h-2q-.49 1.48-1 3h-2v4h4v2q.99.49 2 1-2.46-.49-5-1v2c1.49.5 1.49.5 3 1l-2 2v3h-3v2h5c.5-.99.5-.99 1-2q.49 1.48 1 3c1.49.99 1.49.99 3 2 .37 1.85.37 1.85.36 4.15q.01 1.3.01 2.64-.01 1.42-.03 2.89v3.05q-.01 5-.05 10-.01 3.46-.01 6.92-.02 9.12-.07 18.23-.05 9.3-.06 18.6-.05 18.26-.15 36.52l35-1c.5-50.49.5-50.49 1-102h1q.04 20.12.05 40.24.01 9.34.03 18.68.01 9 .01 18.01l.02 6.89q.01 4.81 0 9.61.01 1.43.01 2.91v4.93C649 364 649 364 648 365h-38V261h-92c1.49-.5 1.49-.5 3-1v-2q-1.48-.49-3-1c.99-.5.99-.5 2-1l2 1v2c1.14-.25 1.14-.25 2.31-.5 2.69-.5 2.69-.5 5.69-.5q.49-.99 1-2v2q2.96.49 6 1-.98-2.46-2-5-.98 1.48-2 3-2.46-.49-5-1v-5c.99-.5.99-.5 2-1 .65-2.02.65-2.02 1-4h2v5c3.47.49 3.47.49 7 1q-.49 1.97-1 4h2v-2h2c-.5-2.48-.5-2.48-1-5q1.97.49 4 1c.5 1.98.5 1.98 1 4q-1.48-.49-3-1v3h5q.49-1.48 1-3 .49.99 1 2c-.5.99-.5.99-1 2h2v-2q1.48.49 3 1v4h37v-2h6v-2q1.97-.99 4-2v-2h-5v4c-3.34.07-5.8.07-9-1-.5.99-.5.99-1 2-1.13-3.75-1.13-3.75 0-6h6q-.49-1.48-1-3c.67-4.67.67-4.67 2-6q.99-.49 2-1-.74-1.17-1.5-2.38C593 236 593 236 593 234c1.75-1.29 1.75-1.29 4-2.63q1.11-.66 2.25-1.35.86-.5 1.75-1.02-.99-.49-2-1-.49 1.48-1 3-.49-.99-1-2l-3.38.06C590 229 590 229 588 228v2h-2v-2c-.99.49-.99.49-2 1q.49 1.48 1 3h-2v-2c-1.49.49-1.49.49-3 1v-2h-7v-2q-5.19.21-10.38.44-1.46.06-2.98.12-1.4.06-2.85.12-1.3.06-2.64.11c-2.2.08-2.2.08-4.15 1.21-.99-.5-.99-.5-2-1v2q-2.96-.99-6-2-.49 1.48-1 3-.49-.99-1-2l-3.37.06C533 229 533 229 531 228v2h-2v-2c-.99.49-.99.49-2 1q.49 1.48 1 3h-2v-2q-.68.74-1.37 1.5C523 233 523 233 521 233v-2l-2-1c.99-.5.99-.5 2-1h-5l1 32h-3q-.04-7.24-.05-14.47-.01-2.46-.03-4.93l-.02-7.06q-.01-1.11-.01-2.24.01-2.65.11-5.3c1.89-1.89 4.64-1.12 7.15-1.12 1.33 0 1.33 0 2.68.01h2.81q4.62 0 9.24.01 3.19.01 6.38.01 8.43 0 16.85.02 8.58.02 17.17.02 16.86.02 33.72.05z" style="fill:#78abba"/><path d="M610 123h39v103c31.22-.04 31.22-.04 62.44-.09 6.02 0 6.02 0 8.84-.01q2.97 0 5.93-.01 4.48-.01 8.96 0 1.32-.01 2.68-.01c6.04.01 6.04.01 7.15 1.12q.13 3.77.1 7.54c0 1.13 0 1.13-.01 2.28q-.01 3.62-.03 7.24-.01 2.45-.01 4.9-.02 6.02-.05 12.04h-30v-1h28v-33c-4.99.14-9.98.29-15.12.44q-2.34.06-4.74.13-1.86.05-3.77.11-1.89.06-3.84.11c-3.51.14-3.51.14-6.87.79C706 229 706 229 704 228v2q-2.96-.99-6-2v2c-.87-.28-.87-.28-1.75-.56-2.49-.49-3.84-.14-6.25.56-3.38 0-5.83-.87-9-2v2l-2.19-.81q-1.38-.09-2.81-.19c-2.6 2.35-2.6 2.35-5 5-2.31.81-2.31.81-4 1v4h-2q-.49.99-1 2h-2q-.49.99-1 2l7 1v2h5v3c1.98.5 1.98.5 4 1q.49 1.97 1 4l-2 1v3q-1.97.49-4 1c-1.04-3.13-.93-3.99 0-7-3.58-1-3.58-1-7 0v-3c2.48-.99 2.48-.99 5-2h-3v-2h-2q.49 1.48 1 3c-3.09 1.76-4.23 2-8 2l2-4c-.99-.5-.99-.5-2-1l.63-2.37q.18-1.3.37-2.63l-2-2q.99-.49 2-1c1.09-2.97 1.04-3.88 0-7q-1.48.49-3 1v-2c-2.48.5-2.48.5-5 1v-2h-4V124h-37z" class="s17"/><path d="M610 124h37v14q-.99-.49-2-1v-3c-1.44-1.69-1.44-1.69-3-3q.99-.49 2-1c-.5-1.98-.5-1.98-1-4h-4l-1 2v-2h-3v2q.99.49 2 1v3l-4 2v-2q-.99-.49-2-1 .99-.49 2-1v-4h-8l-1 2v-2h-4v2q1.48.49 3 1h-2v2q-.95.18-1.94.38-1.01.3-2.06.62-.49.99-1 2c-1.76-3.09-2-4.23-2-8h-2l1 17h2v-2q1.97-.99 4-2v-2q1.48-.49 3-1 .49 1.48 1 3h-2q.49.99 1 2c2.96-.61 4.38-1.25 7-3h2v2l-4 2v2q1.97-.49 4-1 .49 2.46 1 5-1.97-.49-4-1l1-1h-2v2q-2.96.49-6 1v2q1.48.49 3 1h-2q-.49.99-1 2v-2h-2c.96 2.33.96 2.33 4 4 0 4 0 4-1 7h2v-2q.99.49 2 1-.49.99-1 2h2q-.49.99-1 2-.99-.49-2-1v6h2q-.49-1.97-1-4 1.48.99 3 2-.49 1.97-1 4 1.97.49 4 1v-2q1.97.99 4 2-1.48.99-3 2l2 2h-5v-2l-8-2v-2c-2.97.5-2.97.5-6 1v-2q-.99-.49-2-1 .49-.99 1-2h-2v26c-.99.5-.99.5-2 1z" class="s18"/><path d="M1951 250h2c.01 1.66.01 1.66.01 3.36l.32 80.53.04 10.11q.01 1 .01 2.03l.12 29.8.18 46.34.02 3.85c.23 52.66.7 105.32 1.3 157.98q1.13.31 2.29.62 4.36 1.19 8.71 2.38 1.61.44 3.27.89 1.29.35 2.62.72l2.9.79q4.39 1.19 8.78 2.39l2.59.71q.9.24 1.84.5v1c-6.72-.56-12.76-1.88-19.19-3.87q-1.29-.39-2.61-.78-3.62-1.12-7.2-2.35-1.75-.53-3.55-1.07c-2.45-1.93-2.45-1.93-2.9-3.68-.71-8.66-.78-17.33-.86-26.01q-.04-2.71-.07-5.42-.08-7.41-.15-14.82-.04-4.73-.09-9.46c-.53-52.33-.5-104.67-.45-157l.02-39.27q.02-40.14.05-80.27" style="fill:#7695b9"/><path d="M552 227h21q-.99.49-2 1v2q-1.97-.49-4-1-.49 1.48-1 3v-2q-1.48.49-3 1v-2c-1.39.46-1.39.46-2.81.94q-3.1 1.03-6.19 2.06v2q-.95.15-1.94.31c-1.02.34-1.02.34-2.06.69q-.49 1.48-1 3 1.69-.92 3.44-1.88.95-.51 1.93-1.05c1.8-.98 1.8-.98 2.63-3.07q.99.49 2 1v3l-2 2q1.48.99 3 2v-2q1.48.49 3 1 .49 1.48 1 3h-2v2q1.97-.49 4-1l-1-7q.49.99 1 2h4v-3h4v5q-2.46.49-5 1v2q1.97-.49 4-1 .99 1.97 2 4h-2q-.49 1.97-1 4-.99-.49-2-1l-1 1c-2-1-2-1-3-2q-.49 1.97-1 4c-3-2-3-2-5-4q-.49.99-1 2v-2q-1.48.49-3 1 .49 2.95 1 6h-5v2h-2v-3q-.49.99-1 2c-2.44.75-2.44.75-5 1l-2-2h2v-2q.99-.49 2-1c-2.42-2.42-3.64-2.61-7-3-2.73.38-2.73.38-5 1v-4q1.97.49 4 1v-2q-.99-.49-2-1h3v-2q-.99-.49-2-1h2v-2q-.99-.49-2-1c2.08-.55 3.84-1 6-1 .34-1.18.34-1.18.69-2.38 1.31-2.62 1.31-2.62 3.94-3.93q1.16-.34 2.37-.69.49.99 1 2 1.97-.49 4-1-1.97-.99-4-2 .49-.99 1-2" class="s20"/><path d="M610 196h2q.09 1.04.18 2.12.13 1.36.26 2.75.12 1.36.24 2.75c.19 2.39.19 2.39 1.32 4.38h-2l.02 1.8q.03 4.04.04 8.07.02 1.4.03 2.84 0 1.34.01 2.72.01 1.23.01 2.51C612 228 612 228 611 230q-2.96-.99-6-2v2q-2.96-.99-6-2-.49 1.48-1 3-.49-.99-1-2l-3.38.06C590 229 590 229 588 228v2h-2v-2c-.99.5-.99.5-2 1q.49 1.48 1 3h-2v-2c-1.49.5-1.49.5-3 1v-2h-7v-2q-5.19.21-10.38.44-1.46.06-2.98.12-1.4.06-2.85.12-1.3.06-2.64.11c-2.2.08-2.2.08-4.15 1.21-.99-.5-.99-.5-2-1v2q-2.96-.99-6-2-.49 1.48-1 3-.49-.99-1-2l-3.37.06C533 229 533 229 531 228v2h-2v-2c-.99.5-.99.5-2 1q.49 1.48 1 3h-2v-2q-.68.74-1.37 1.5C523 233 523 233 521 233v-2l-2-1c.99-.5.99-.5 2-1h-5l1 32h-3q-.04-7.24-.05-14.47-.01-2.46-.03-4.93l-.02-7.06q-.01-1.11-.01-2.24.01-2.65.11-5.3c1.89-1.89 4.64-1.12 7.15-1.12 1.33 0 1.33 0 2.68.01h2.81q4.62 0 9.24.01 3.19.01 6.38.01 8.43 0 16.85.02 8.58.02 17.17.02 16.86.02 33.72.05z" style="fill:#6ea4b4"/><path d="M3588 365h2q.04 20.4.05 40.8.01 9.48.03 18.96c.08 48.09.08 48.09-.4 71.89q-.06 2.72-.11 5.45c-.41 22.88-.41 22.88-5.2 33.59-.66 1.52-.66 1.52-1.35 3.07L3582 541h-2q-.15.88-.31 1.8c-.8 2.56-1.81 3.63-3.75 5.45l-1.66 1.58q-.63.58-1.28 1.17-.99-.49-2-1 1.29-1.11 2.63-2.25c10.31-10.29 12.4-25.26 12.65-39.14l.06-2.56.16-8.74.06-3.1c.81-43.07 1.05-86.14 1.44-129.21" style="fill:#317298"/><path d="M3433 365h2c.01.87.01.87.01 1.76q.16 21.5.33 43l.16 20.8c.26 37.97.26 37.97.86 75.93q.05 2.62.09 5.24c.17 9.26.74 18.17 2.55 27.27q.51 3 1 6h-2c-3.77-8.86-4.11-17.6-4.31-27.13q-.04-1.29-.07-2.62l-.18-8.6-.06-3.05c-.55-26.71-.5-53.42-.45-80.14q.02-9.94.02-19.88.02-19.29.05-38.58" style="fill:#6286ae"/><path d="M646 199h1v27h-2v2h-2v2h4q.49.99 1 2c-2.89.83-4.89 1-8 1q-.49.99-1 2l-3-3c.99-.5.99-.5 2-1q-.49-.99-1-2-1.48.49-3 1v-2h-2v-2l-7-1q.49-.99 1-2h2v2q1.97-.49 4-1 .49-2.46 1-5h2q.49 1.97 1 4h2l-.69-2.19c-.39-3.57.65-4.95 2.69-7.81q-1.48-.49-3-1-.49-.99-1-2-1.48.49-3 1v-4q-1.48-.49-3-1c.28.93.28.93.56 1.87C631 210 631 210 630 212c-2.49-1.2-4.68-2.45-7-4h2q-.49-1.97-1-4h-2q.49 1.48 1 3h-2q.49 1.48 1 3h-2q-.49-1.97-1-4h2v-2q-.99-.49-2-1h2q.49-.99 1-2v2q1.48-.49 3-1 .49 1.97 1 4h2v-2h2v-2h6q.99 1.97 2 4h3v2q1.97.49 4 1z" class="s24"/><path d="M610 124h37v14q-.99-.49-2-1v-3c-1.44-1.69-1.44-1.69-3-3q.99-.49 2-1c-.5-1.98-.5-1.98-1-4h-4l-1 2v-2h-3v2q.99.49 2 1v3l-4 2v-2q-.99-.49-2-1 .99-.49 2-1v-4h-8l-1 2v-2h-4v2q1.48.49 3 1h-2v2q-.95.18-1.94.38-1.01.3-2.06.62-.49.99-1 2c-1.76-3.09-2-4.23-2-8h-2q.21 5.69.44 11.38l.12 3.27.12 3.12q.06 1.43.11 2.89c.07 2.36.07 2.36 1.21 4.34h-2q.49 1.48 1 3-.13 3.35-.44 6.69-.15 1.76-.31 3.57c-.12 1.36-.12 1.36-.25 2.74q.99.49 2 1h-2v26c-.99.5-.99.5-2 1z" class="s25"/><path d="M684 239q1.48.49 3 1-.99.49-2 1v2h2c1.06 2.38 1.06 2.38 2 5q-.49.99-1 2-.99-.49-2-1c-1.45 1.45-1.56 3.04-2 5q2.46-.49 5-1v4c-3.88-.88-3.88-.88-5-2q-.49 1.97-1 4 1.97.99 4 2h-39v-1h5q1.09-2.97 2-6-.49-.99-1-2c1.94-.56 1.94-.56 4-1l1 1q1.48-.49 3-1v-2q1.48-.99 3-2v-2h2v2h3q-.49.99-1 2h-4v3q.49-.99 1-2c3.15-.26 4.62-.25 7.31 1.5q.83.74 1.69 1.5h-3q.49 1.48 1 3c-.44 2.19-.44 2.19-1 4q2.46-.49 5-1v-2h2v-2l2-2v-4q-.99-.49-2-1l2-2 2 2v-2q.99-.49 2-1c-.5-1.49-.5-1.49-1-3q-.99-.49-2-1h2z" class="s26"/><path d="M675 228q2.96.99 6 2v-2q2.96.99 6 2 .49-.99 1-2 2.46.99 5 2l-4 2q.49 1.48 1 3-1.97-.49-4-1v-2h-2q.49 1.48 1 3l-9 3v2q-1.97-.49-4-1v2h3v2h2c2.61 1.88 2.98 2.9 3.56 6.13q.22 1.41.44 2.87.99.49 2 1-.49.99-1 2h-3v2h-2v2q-2.46.49-5 1 .71-.65 1.44-1.31c1.8-1.71 1.8-1.71 2.56-4.69q.49-1.48 1-3c-2.48-.99-2.48-.99-5-2v-2q-1.97-.49-4-1v-2q-1.97-.49-4-1-.49.99-1 2v-2h-2q.49-1.48 1-3 1.48-.49 3-1v-2h2q-.49-1.48-1-3h5q.49-2.46 1-5h3z" class="s27"/><path d="M1640 411c5.97.45 10.31 3.13 15.38 6.06q1.24.71 2.51 1.43 3.06 1.75 6.11 3.51c.2 35.38-.25 70.76-1.5 106.13q-.05 1.53-.11 3.11c-.21 5.31-.65 10.5-1.39 15.76h-2q.36-15.81.73-31.62l.34-14.69q.9-39.35 1.93-78.69-1.41-.46-2.87-.94c-2.55-.86-4.82-1.79-7.22-3.01q-1.04-.52-2.12-1.07-1.07-.54-2.17-1.1-1.09-.56-2.23-1.13-2.7-1.37-5.39-2.75z" style="fill:#b5c7d9"/><path d="M610 123h39v103h38v1l-40 1V124h-37z" style="fill:#aecad5"/><path d="M647 261h1v102h-1v-73q-2.46.49-5 1-.99-.49-2-1 .49-1.48 1-3 1.48.49 3 1 .22-.86.44-1.75.78-3.13 1.56-6.25h-2v5q-1.48-.49-3-1v-1q-.99-.49-2-1 1.97-.49 4-1v-2q-.99-.49-2-1 1.48-.49 3-1v2h2c.5-8.91.5-8.91 1-18m-6 30q.49 1.48 1 3-.49.99-1 2 1.97.99 4 2h-2q-.49.99-1 2-.49-.99-1-2h-4l-1 7q1.48-.49 3-1v2l2 2c0 5.36 0 5.36-2 8-3.13.75-3.13.75-6 1q.99-.49 2-1v-2h2l-1.81-1.81L630 307q2.46-.49 5-1v-2q-1.48.49-3 1-1.48.49-3 1-.49-2.46-1-5h2q-.49-1.48-1-3c1.98.5 1.98.5 4 1v-2q-1.48-.49-3-1c1.88-.62 1.88-.62 4-1l2 2h2v-2h2q.49-1.97 1-4" style="fill:#5497a8"/><path d="M407.79 291.88q1.16 0 2.36.01h2.67q1.43 0 2.9.01c1.47 0 1.47 0 2.96.01q4.69.01 9.38.03 3.18.01 6.35.01 7.79.02 15.59.05v1h-43v115c-5.62 1.13-5.62 1.13-9 0 3.47-.49 3.47-.49 7-1v-1.78q-.04-21.38-.05-42.76-.01-10.34-.03-20.68-.01-9.97-.01-19.94l-.02-7.62q-.01-5.32 0-10.64-.01-1.59-.01-3.22v-5.46c.16-2.51.4-2.85 2.91-3.02" style="fill:#f8e8df"/><path d="M630 320q1.97.99 4 2-.25.89-.5 1.81c-.61 2.3-.61 2.3-.5 5.19q-.99-.49-2-1v3h3v6c-3.96.5-3.96.5-8 1q1.48.49 3 1v2h-2q.49.99 1 2 1.48.49 3 1 1.48.49 3 1v3h-2q-.49 1.48-1 3-.99-1.48-2-3-.49.99-1 2-.49-1.48-1-3-.99-.49-2-1v-1l-7-2q-.49.99-1 2-.49-1.48-1-3 1.48-.49 3-1l-2-2q.49-.99 1-2h2v-2q.99-.49 2-1l-2-2-1-1 2-6h-3v-2q2.46-.49 5-1 .49.99 1 2h-2v3h2v-2h5q.49-2.46 1-5m0 18c.99.5.99.5 2 1q-.49 1.97-1 4-.49-2.46-1-5" class="s17"/><path d="M415.14 638.89q2.09 0 4.18.01c1.09 0 1.09 0 2.21.01q3.52.01 7.03.03 2.38.01 4.76.01 5.84.02 11.68.05c.49.99.49.99 1 2l-33-1v72c-4.02.8-7.14 1.12-11.17 1.11h-3.7q-1.95 0-3.96-.01-2.04-.01-4.08-.01-5.36 0-10.71-.02-5.47-.02-10.94-.02-10.72-.02-21.44-.05c.49-.99.49-.99 1-2h63c-.01-5.11-.02-10.23-.04-15.5q0-4.84-.01-9.69-.01-7.7-.03-15.4-.01-6.21-.01-12.41l-.02-4.75q-.01-3.31 0-6.62-.01-1.88-.01-3.81c.17-3.97.24-3.79 4.26-3.93" style="fill:#c2ccdc"/><path d="M622 196v4l-4 4c-.8 2.64-.8 2.64-1 5h-2q-.49 2.46-1 5 1.08-.22 2.2-.44c4.98-.96 9.69-1.84 14.8-1.56q.49 1.48 1 3-1.48.99-3 2c-1.19 2.05-1.19 2.05-2 4v-2q-.99.49-2 1 .49.99 1 2h-2q-.49.99-1 2v-3h-2v2h-2q.49 1.48 1 3h-2q.49 1.97 1 4h2c-.5-1.49-.5-1.49-1-3h2v2q.99.49 2 1h-2v3h-2v-2h-2v-2q-.99-.49-2-1 .49-.99 1-2h-2q-.49.99-1 2-.49-1.48-1-3l-1-1c-.1-2.68-.14-5.32-.13-8q0-1.12-.01-2.27c.01-5.6.01-5.6 1.14-6.73h-1v-6h6q-.49-1.97-1-4c3-1 3-1 5-1" style="fill:#3b819c"/><path d="M531 246h2v5l7 1q-.49 1.97-1 4h2v-2h2q-.49-2.46-1-5 1.97.49 4 1 .49 1.97 1 4-1.48-.49-3-1v3h5q.49-1.48 1-3c.5.99.5.99 1 2q-.49.99-1 2h2v-2q1.48.49 3 1v4h40v1h-77q1.48-.49 3-1v-2q-1.48-.49-3-1 .99-.49 2-1 .99.49 2 1v2q1.14-.25 2.31-.5c2.69-.5 2.69-.5 5.69-.5q.49-.99 1-2v2c2.97.5 2.97.5 6 1q-.99-2.46-2-5c-.99 1.49-.99 1.49-2 3q-2.46-.49-5-1v-5q.99-.49 2-1c.65-2.02.65-2.02 1-4" style="fill:#619aae"/><path d="M1951 482q1.48.49 3 1l1 101 11 3q2.94.8 5.89 1.61l2.9.79q4.39 1.19 8.78 2.39l2.59.71c.91.25.91.25 1.84.5v1c-6.72-.56-12.76-1.88-19.19-3.88l-2.61-.77q-3.62-1.12-7.2-2.35-1.75-.53-3.55-1.07c-2.45-1.93-2.45-1.93-2.9-3.97q-.09-1.22-.19-2.48c-.1-1.35-.1-1.35-.21-2.73q-.32-6.16-.36-12.33-.01-1.34-.03-2.72l-.08-8.8-.06-6.15q-.08-8.04-.15-16.08l-.16-16.46q-.16-16.1-.31-32.21" style="fill:#819dbe"/><path d="M2618 430h2c-.6 4.12-1.54 7.87-2.88 11.81-4.14 13.54-5.41 26.24-5.5 40.31l-.02 2.04c-.12 13.05 1.86 25.24 6.09 37.59 2.31 6.89 2.31 6.89 2.31 10.25h-2q-1.42-4.03-2.81-8.06-.39-1.1-.79-2.22c-4.46-13.04-5.96-25.68-5.84-39.35q.01-1.1.01-2.23c.1-17.6 2.73-33.8 9.43-50.14" style="fill:#c6d5e3"/><path d="M1500 433h2c-.43 1.89-.43 1.89-.88 3.81-3.25 14.79-4.29 29.21-4.25 44.31q.01 3.41-.01 6.81 0 2.2.01 4.41v3.95c.13 3.64.57 7.11 1.13 10.71.11 2.68.05 5.32 0 8h2l4 15q-1.48-.49-3-1a75 75 0 0 1-2.56-7.81q-.31-1.06-.63-2.14c-3.41-12-4.15-23.72-4.06-36.11q0-1.16.01-2.34c.08-16.38.49-32.06 6.24-47.6" style="fill:#7899ba"/><path d="M3587 472q1.48.49 3 1-.14 9.31-.32 18.62l-.1 6.32q-.07 4.57-.17 9.14c-.01 1.39-.01 1.39-.03 2.81-.2 8.96-1.32 17.56-5 25.8-.67 1.52-.67 1.52-1.36 3.07L3582 541h-2q-.15.88-.31 1.8c-.8 2.56-1.81 3.63-3.75 5.45l-1.66 1.58q-.63.58-1.28 1.17-.99-.49-2-1 1.29-1.11 2.63-2.25c10.98-10.96 12.43-26.72 12.69-41.38l.06-2.99q.1-4.69.18-9.38.07-3.2.13-6.39.16-7.81.31-15.61" style="fill:#427a9c"/><path d="M525 228h4v2h2v-2c6.63-.25 6.63-.25 10 2q.49-.99 1-2 2.96.99 6 2v-2q2.96.99 6 2 .49-.99 1-2v3q-2.96.99-6 2v-2l-4 2q.49.99 1 2h-3v2q.99.49 2 1-1.97.49-4 1v-2l-2.88 1.5C535 240 535 240 533 240q.49-1.97 1-4h4l-2-2 1-1q-1.48-.49-3-1 .49 1.48 1 3-2.96.99-6 2v-2h-2c-1-3-1-3 0-6q-.99-.49-2-1" class="s39"/><path d="M694 226q10.65-.04 21.31-.05 3.62-.01 7.25-.03l10.4-.02q1.63-.01 3.3-.01h3.04c1.33-.01 1.33-.01 2.68-.01C744 226 744 226 745 227q.13 3.77.1 7.54 0 1.12-.01 2.28-.01 3.62-.03 7.24-.01 2.45-.01 4.9-.02 6.02-.05 12.04h-30v-1h28v-33c-4.99.14-9.98.29-15.13.44q-2.33.06-4.73.13-1.86.05-3.77.11-1.89.06-3.84.11c-3.51.14-3.51.14-6.87.79C706 229 706 229 704 228q-2.56-.34-5.12-.56-1.36-.13-2.76-.26L694 227z" style="fill:#a2c2cf"/><path d="M610 196h2q.09 1.04.18 2.12.13 1.36.26 2.75.12 1.36.24 2.75c.19 2.39.19 2.39 1.32 4.38h-2l.02 1.8q.03 4.04.04 8.07.02 1.4.03 2.84 0 1.34.01 2.72.01 1.23.01 2.51C612 228 612 228 611 230q-2.96-.99-6-2v2q-2.96-.99-6-2-.49 1.48-1 3-.49-.99-1-2l-3.38.06C590 229 590 229 588 228v2h-2v-2c-.99.5-.99.5-2 1q.49 1.48 1 3h-2v-2c-1.49.5-1.49.5-3 1v-2q-.99-.49-2-1c3.65-3.65 15.97-2.05 21.13-2.07q5.44.02 10.87.07z" style="fill:#6ea5b4"/><path d="M635 174q2.46.49 5 1c1.13 3.75 1.13 3.75 0 6h2q.49-.99 1-2v2q.99.49 2 1l-9 2q-.49 1.97-1 4 1.97.49 4 1 .49-.99 1-2v2h2q.49-.99 1-2v2q.99.49 2 1h-2q-.49.99-1 2v-2q-1.48.99-3 2 .99 1.48 2 3h-2v2q-2.96-.99-6-2l3-6q-1.48.49-3 1c-.56-1.94-.56-1.94-1-4l1-1c-1.33.19-1.33.19-2.69.38-3.67-.42-3.98-.69-6.19-3.38-1.05-1.49-1.05-1.49-2.12-3q1.48-.49 3-1v2h12q-.99-1.48-2-3z" class="s42"/><path d="M610 125h2l.08 2.17q.17 4.85.36 9.71l.12 3.41.12 3.26q.06 1.49.11 3.02c.06 2.44.06 2.44 1.21 4.43h-2q.49 1.48 1 3-.13 3.35-.44 6.69-.15 1.76-.31 3.57c-.12 1.36-.12 1.36-.25 2.74q.99.49 2 1h-2v26c-.99.5-.99.5-2 1z" style="fill:#6ba5b3"/><path d="M635 247c2.97.5 2.97.5 6 1q-.49 1.48-1 3c3.62 1.21 4.64.54 8-1q-.49 2.46-1 5h-2q.49 1.97 1 4h-5v-2h2l-2-2-2 6q1.97-.49 4-1v2q-1.97.49-4 1v2h-5v-2h-2q-.49.99-1 2-.49-1.97-1-4h4c-.31-1.36-.31-1.36-.63-2.75-.38-3.36-.17-4.49 1.63-7.25h-2z" style="fill:#3a7f9b"/><path d="M579 230v9h2q.49-1.48 1-3 .49.99 1 2h3v-2h2v3q1.48-.49 3-1l3 3q-2.96.49-6 1-.49 1.97-1 4-1.48-.49-3-1v-2h-2c.35 1.98.35 1.98 1 4q.99.49 2 1-.49.99-1 2h-2v-2q-1.48.49-3 1-.99-2.46-2-5h2v-2q-1.48-.49-3-1 .06-1.42.13-2.88c.22-3.22.22-3.22-2.13-5.12 2.75-3 2.75-3 5-3" style="fill:#4389a0"/><path d="M684 239q1.48.49 3 1-.99.49-2 1v2h2c1.06 2.38 1.06 2.38 2 5q-.49.99-1 2-.99-.49-2-1c-1.45 1.45-1.56 3.04-2 5q2.46-.49 5-1v4c-3.88-.88-3.88-.88-5-2q-.49 1.97-1 4 1.97.99 4 2h-39v-1l29-1v-2h2v-2l2-2v-4q-.99-.49-2-1l2-2 2 2v-2q.99-.49 2-1c-.5-1.49-.5-1.49-1-3q-.99-.49-2-1h2z" class="s46"/><path d="M732 231c2 2 2 2 2 5 3.4-1.06 6.01-2.01 9-4v19c-2-1-2-1-3-3q-2.47-1.09-5-2 .49-1.48 1-3-1.48-.49-3-1c-1.81-3.31-1.81-3.31-3-7 .81-2.44.81-2.44 2-4" style="fill:#42889f"/><path d="M635 126h8c.93 3.01 1.04 3.87 0 7q1.48.49 3 1c1.13 7.75 1.13 7.75 0 10h-5q.49-2.46 1-5h-4q-1.48-.49-3-1l-1-7h2q-.49-2.46-1-5m7 7 1 2z" style="fill:#3c829d"/><path d="M704 227v3q-2.96-.99-6-2v2q-.86-.28-1.75-.56c-2.49-.49-3.84-.14-6.25.56-3.38 0-5.83-.87-9-2v2l-2.31-.63c-2.91-.7-2.91-.7-5.69 1.63v-2l-2.25.63c-3.07.41-4.18-.01-6.75-1.63v2h-2v-2c-.99.5-.99.5-2 1q.49 1.48 1 3h-2v-2q-1.48.49-3 1v-2q-2.46.49-5 1v-3q7.22-.26 14.45-.48 2.44-.08 4.89-.17c11.29-.4 22.39-.22 33.66.65" class="s49"/><path d="M631 212q.49 1.48 1 3-1.48.99-3 2c-1.19 2.05-1.19 2.05-2 4v-2c-.99.5-.99.5-2 1q.49.99 1 2h-2q-.49.99-1 2v-3h-2v2h-2q.49 1.48 1 3h-2q.49 1.97 1 4h2q-.49-1.48-1-3h2v2q.99.49 2 1h-2v3h-2v-2h-2v-2q-.99-.49-2-1 .49-.99 1-2h-2q-.49.99-1 2-.49-1.48-1-3h2q.49-.99 1-2v2h2q-.49-1.48-1-3h3v-2h-3c.19-2.88.19-2.88 1-6 4-2.67 8.37-2.16 13-2" class="s20"/><path d="M620 234h2c1 3.88 1 3.88 1 5h2q-.99 1.97-2 4v-2h-2q-.49 2.95-1 6h2q-.49.99-1 2c-1.16 2.95-1.16 2.95-1 6h2q-.49.99-1 2h-3q-.49-1.48-1-3-1.48-.99-3-2 .99-1.17 2-2.38c2.2-2.34 2.2-2.34 2-4.62-.99 1.49-.99 1.49-2 3h-2q.46-2.19.94-4.38.26-1.21.52-2.46C616 239 616 239 617 237h2q.49-1.48 1-3m-4 20q.49 1.48 1 3h-2v2h-2q.49 1.48 1 3-1.48-.49-3-1 .49-1.97 1-4h-3c3.63-3 3.63-3 7-3" class="s46"/><path d="M632 287q.37.92.75 1.88c1.46 2.47 2.63 3.07 5.25 4.12v4h-2q-.49.99-1 2-.49-1.97-1-4c-.99.5-.99.5-2 1q.49 1.48 1 3h-3l-1 7 2-2q.99-.49 2-1 .99.49 2 1-.49 1.97-1 4c-3.96.5-3.96.5-8 1q.99-.49 2-1v-2q-1.48-.49-3-1 .99-.49 2-1c-.53-1.39-.53-1.39-1.06-2.81C625 298 625 298 626 295q.99.49 2 1v-3h3q-.99-.49-2-1v-3h3z" class="s50"/><path d="m620 180 2 2h-2v2q1.97-.99 4-2-.49 1.48-1 3h-2c1.12 3.73 1.12 3.73 4 6q-.99-2.46-2-5h2q.49-.99 1-2v2h2q.49 2.46 1 5c-.99.5-.99.5-2 1q.49 1.48 1 3-1.97-.49-4-1v-2h-2q-.49.99-1 2h-9q.49-2.46 1-5 1.48.49 3 1-.49-1.48-1-3h2q-.49-1.48-1-3h3q-.49-1.48-1-3 .99-.49 2-1" style="fill:#458ca1"/><path d="M620 155q1.48.49 3 1c0 4 0 4-1 7h2v-2q.99.49 2 1-.49.99-1 2h2q-.49.99-1 2-.99-.49-2-1v6h2q-.49-1.97-1-4 1.48.99 3 2-.49 1.97-1 4 1.97.49 4 1v-2q1.97.99 4 2-1.48.99-3 2l2 2h-5v-2l-8-2v-2q-2.96.49-6 1v-2h2q.49-.99 1-2v2h2v-2h2q-.49-2.95-1-6h-2v-3l-2-2h3z" class="s46"/><path d="M633.81 153.81c3.12.19 4.74.29 7.19 2.19.75 2.62.75 2.62 1 5h-3c-.68 2.86-.68 2.86-1 6 .99 1.49.99 1.49 2 3h-2q-.98 1.48-2 3-.98-.99-2-2c.24-2.16.24-2.16.88-4.63q.3-1.21.61-2.47.25-.94.51-1.9-.98 2.46-2 5h-6q.49-2.46 1-5h4q-.49-1.48-1-3-.49.99-1 2c-3-2-3-2-4-4q1.48-.99 3-2c1-1 1-1 3.81-1.19M632 156q.49.99 1 2 1.48-.49 3-1-1.97-.49-4-1" class="s17"/><path d="M552 227h21c-.99.5-.99.5-2 1v2q-1.97-.49-4-1-.49 1.48-1 3v-2q-1.48.49-3 1v-2c-1.39.46-1.39.46-2.81.94q-3.1 1.03-6.19 2.06v2q-.95.15-1.94.31-1.01.34-2.06.69-.49 1.48-1 3c-2.97-.5-2.97-.5-6-1 .69-2.38.69-2.38 2-5 2.63-1.31 2.63-1.31 5-2q.49.99 1 2 1.97-.49 4-1-1.97-.99-4-2 .49-.99 1-2" style="fill:#5093a6"/><path d="M2113 456h2c5.35 14.61 4.67 33.26 0 48h-2c.22-1.02.22-1.02.44-2.07 2.76-15.03 2.72-30.97-.44-45.93" class="s53"/><path d="M623 305q2.46.49 5 1v2q1.48.99 3 2-1.48 1.97-3 4 .99.49 2 1v-2q.99.49 2 1v4h-2v-2q-1.97.49-4 1v-2q-1.48-.49-3-1 .99-.49 2-1-.49-.99-1-2-2.46.99-5 2v3l-7 2q.49-.99 1-2h2v-2h2q-.99-2.46-2-5l8-2z" class="s25"/><path d="M643 142q.49.99 1 2 .49-.99 1-2h2v14q-.99-.49-2-1l1-10h-2v8c-1.94-.75-1.94-.75-4-2-.75-2.13-.75-2.13-1-4h-2q-.49 2.46-1 5l-9 2q.99-1.97 2-4 2.46.49 5 1v-2q-.99-.49-2-1l2-2h4v-2q1.48-.49 3-1 .99.49 2 1z" class="s24"/><path d="M635 357h2v4q.49-1.48 1-3l8 1v5h-20q.99-2.46 2-5l7 1z" style="fill:#3d7c9b"/><path d="M621 301h4v4h-2v2q.99.49 2 1l-8 1v5h-2v2q-1.48.49-3 1v-10q1.97.49 4 1v-3h-2v-3h4v2q1.48-.49 3-1z" class="s27"/><path d="M1505 537h2c3 5.75 3 5.75 3 8h2q.49 2.46 1 5h2v3h2q1.83 2.13 3.5 4.38c4.41 5.67 9.34 10.63 14.5 15.62l2 2c-3.46-.38-5.12-1.86-7.45-4.35-1.94-2.07-3.97-4.04-5.99-6.02q-2.29-2.31-4.56-4.63-.8-.81-1.63-1.64c-4.44-4.79-12.37-14.68-12.37-21.36" style="fill:#8ba6c3"/><path d="M613 278h2v2h4q.49-.99 1-2 .49 1.48 1 3h-2q-.49 1.97-1 4h2q.49-1.48 1-3 .99.49 2 1c-.99 1.49-.99 1.49-2 3v5h-6q-.49-.99-1-2 1.97-.49 4-1-.49-1.97-1-4h-2q.49 1.48 1 3-1.97.49-4 1-.04-2.22-.06-4.44l-.04-2.49c.1-2.07.1-2.07 1.1-3.07m1 13q.49.99 1 2 .99.49 2 1-1.97.49-4 1 .49-1.97 1-4" class="s20"/><path d="M646 211c1.05 3.15 1.1 5.39 1.06 8.69l-.02 3.01-.04 2.3h-2q-.49-1.97-1-4v6q-2.46.49-5 1 .31-.8.63-1.62c.5-3.21-.48-5.39-1.63-8.38q.99-.65 2-1.31c.99-.84.99-.84 2-1.69v-3c2-1 2-1 4-1" class="s7"/><path d="M3435 485h1l.06 3.67q.12 6.81.26 13.62l.1 5.86c.17 10.46.43 20.58 2.58 30.85q.51 3 1 6h-2c-5.67-12.81-3.99-27.07-3.56-40.75l.16-5.62q.19-6.81.4-13.63" style="fill:#4e7da5"/><path d="M644 196h3l-1 14h-5v-4h-2v-4q-.99-.49-2-1 1.48-.49 3-1v-2q1.97.49 4 1z" class="s14"/><path d="M3037 415h2c-1.42 4.43-3.09 8.7-4.88 13-2.94 7.2-5.15 14.48-7.12 22h-2c.57-5.97 1.81-11.27 3.75-16.94.4-1.18.4-1.18.8-2.38 1.95-5.61 4.28-10.64 7.45-15.68" style="fill:#93adc7"/><path d="M714.96 226.89q1.93 0 3.92.01c1.03 0 1.03 0 2.08.01q3.3.01 6.6.03 2.24.01 4.47.01 5.48.02 10.97.05v4c-2-1-2-1-5-3v2l-2.31-.63c-2.91-.7-2.91-.7-5.69 1.63v-2c-1.11.31-1.11.31-2.25.62-3.07.42-4.18 0-6.75-1.62v2h-2v-2c-.99.49-.99.49-2 1q.49 1.48 1 3h-2v-2q-1.48.49-3 1v-2q-.99-.49-2-1c1-1 1-1 3.96-1.11" class="s49"/><path d="M3586 517h2c.75 8.87-2.05 16.11-6 24h-2q-.15.88-.31 1.8c-.8 2.56-1.81 3.63-3.75 5.45l-1.66 1.58q-.63.58-1.28 1.17-.99-.49-2-1 1.29-1.11 2.63-2.25c8.12-8.11 11.2-19.68 12.37-30.75" style="fill:#83a0bf"/><path d="M3025 509h2q.5 1.87 1.02 3.8.68 2.47 1.35 4.95.34 1.23.68 2.5.32 1.19.66 2.42.3 1.1.6 2.22c.64 2.15.64 2.15 1.76 4.21 1.17 2.4 1.08 4.27.93 6.9h2c3 5.75 3 5.75 3 8h-2c-3.84-6.95-6.85-13.92-9.38-21.44l-.79-2.33c-1.26-3.85-2.17-7.12-1.83-11.23" style="fill:#8ba8c3"/><path d="M2618 430h2c-.6 4.12-1.54 7.87-2.88 11.81-2.51 7.93-3.82 15.99-5.12 24.19h-1c-.78-12.86 2.17-24.16 7-36" style="fill:#94aec8"/><path d="M665 245h2v2h3q-.49.99-1 2h-4v3q.49-.99 1-2c3.15-.26 4.62-.25 7.31 1.5.84.74.84.74 1.69 1.5h-3q.49 1.48 1 3-.49 1.48-1 3h-4c-.56-1.94-.56-1.94-1-4l1-1q-2.46.49-5 1-.49-2.95-1-6 1.48-.99 3-2z" class="s61"/><path d="M527 245q.99.49 2 1v2h-2v2q-1.97-.49-4-1v4q-1.97.49-4 1v3q.99.49 2 1v2c-1.94.56-1.94.56-4 1-1-1-1-1-1.1-4.16l.04-3.9.02-3.91.04-3.03 3 3c2.17-.83 2.17-.83 3-3q1.97.49 4 1 .49-.99 1-2" class="s62"/><path d="M2611 498h1q.24 1.34.48 2.72c1.48 7.9 3.35 15.46 5.89 23.09.95 2.86 1.63 5.14 1.63 8.19h-2q-1.47-4.37-2.94-8.75-.41-1.23-.84-2.5c-.4-1.2-.4-1.2-.81-2.42-.37-1.1-.37-1.1-.75-2.22-1.34-4.28-1.77-7.85-1.72-12.36l.02-3.27z" style="fill:#a9bed2"/><path d="M2626 548c2.8.35 3.86.85 5.82 2.93q.92 1.24 1.87 2.51c5.78 7.51 11.76 14.76 19.31 20.56q-1.48.49-3 1-.49-1.48-1-3-1.98-1.04-4-2c-5.4-4.74-10.68-10.25-15-16v-2h-2v-3q-.99-.49-2-1" style="fill:#94afc8"/><path d="M631 231h4c0 4 0 4-2 7h-3q1.97.49 4 1v2h-2q.49 1.48 1 3h-3v2q-.99-.49-2-1 .49-1.97 1-4-1.48-.49-3-1v-6h5z" style="fill:#41889f"/><path d="M644 263q.49 1.48 1 3h2q-.49 2.46-1 5-1.97.49-4 1v2h-2v-2q-1.97.49-4 1 .49-1.48 1-3 1.48-.49 3-1-1.48-.49-3-1c1.46-2.92 3.64-5 7-5" style="fill:#387d9b"/><path d="M696 254q.49.99 1 2h2v2l7-2q-.49.99-1 2-1.48.49-3 1c5.45.5 5.45.5 11 1v1h-25l5-4v2h2q-.49-1.48-1-3h2z" style="fill:#699fb3"/><path d="m563 252 8 1v7h-15q.49-1.97 1-4h4v3q2.46-.49 5-1l-.94-1.88z" class="s62"/><path d="M694 226h50v1l-2.84.08q-5.25.14-10.5.29-2.27.07-4.54.13l-6.53.18q-1.96.06-3.97.11c-3.59.14-3.59.14-6.97.79C706 229 706 229 704 228q-2.56-.34-5.13-.56-1.35-.13-2.75-.26L694 227z" style="fill:#c6d4e1"/><path d="M618 216c2 1 2 1 3 2q2.49 1.52 5 3c-.99.5-.99.5-2 1q-.49.99-1 2v-3h-2v2h-2q.49 1.48 1 3h-2q.49 1.97 1 4h2q-.49-1.48-1-3h2v2q.99.49 2 1h-2v3h-2v-2h-2v-2q-.99-.49-2-1 .49-.99 1-2h-2q-.49.99-1 2-.49-1.48-1-3h2q.49-.99 1-2v2h2q-.49-1.48-1-3h3v-2h-3q.49-1.97 1-4" class="s69"/><path d="M547 240h2v2h2v2h2c2.62 3.56 3.49 6.64 4 11-3.79-.54-5.55-2.12-8-5v-2q-1.48-.49-3-1h2q.49-.99 1-2v2q.99-.49 2-1-.49-1.48-1-3h-2q-.49-1.48-1-3" class="s70"/><path d="M542 226h50v1q-1.3.09-2.63.18-1.72.13-3.5.26-1.69.12-3.44.24c-3.18.3-6.29.75-9.43 1.32v-2h-31z" style="fill:#c6d3e0"/><path d="M622 196v4l-4 4c-.8 2.64-.8 2.64-1 5h-2v2q-.99-.49-2-1c-.41-2.07-.41-2.07-.63-4.56q-.11-1.24-.22-2.51-.07-.95-.15-1.93h6q-.49-1.97-1-4c3-1 3-1 5-1" style="fill:#438aa0"/><path d="M730 253v3h-2v2q.99.49 2 1 .49-1.97 1-4c2 1 2 1 4 3q-.49.99-1 2-2.69.08-5.38.13-1.48.03-3.02.07c-2.6-.2-2.6-.2-4.6-2.2v-3c3.13-1.86 5.37-2.2 9-2" style="fill:#387e9b"/><path d="M549 248v2q.99.49 2 1 1.55 1.96 3 4h-2v2h-2v-3q-.49.99-1 2c-2.44.75-2.44.75-5 1l-2-2h2v-2q.99-.49 2-1l-4-4c2.67-1.33 4.17-.67 7 0" style="fill:#377d9a"/><path d="M566 248q.99.49 2 1l1-1c2.78 1.39 2.98 3.16 4 6h2q-.49-1.48-1-3l2-2c1.13 3.75 1.13 3.75 0 6h-2q-.99 2.46-2 5l-4-5h3q-2.96-.99-6-2 .49-2.46 1-5" class="s50"/><path d="M693 228c2.48.99 2.48.99 5 2v-2q2.96.99 6 2v-2c6.52-.37 6.52-.37 8.94 1.5q.52.74 1.06 1.5c-.99.5-.99.5-2 1v-2l-2.37 1.56q-1.3.71-2.63 1.44-.99-.49-2-1-.99.25-2 .5c-2 .5-2 .5-4-.5h-2q-2.03-.95-4-2z" style="fill:#347899"/><path d="M639 297q1.48.49 3 1v2h-2v4h2v4q.99.49 2 1c-.99.5-.99.5-2 1v2h-2c-.19-.93-.19-.93-.38-1.88-.49-2.31-.49-2.31-2.62-4.12l-1-1c.31-3.5.31-3.5 1-7q.99-.49 2-1" class="s76"/><path d="M550 253q.49.99 1 2-.49.99-1 2h2v-2q1.48.49 3 1v4h-14q.49-.99 1-2 .99.49 2 1v-2q2.46-.49 5-1 .49-1.48 1-3" class="s62"/><path d="M677 257h2v2l8 1v1h-39v-1l29-1z" style="fill:#96b5c9"/><path d="M645 165h2v14h-2v-5h-2v-3h-2v3h-2c.81-2.94.81-2.94 2-6q1.48-.49 3-1v2h2q-.49-1.97-1-4" class="s42"/><path d="M618 142q1.97.49 4 1l-2 8c-4 1-4 1-6.25.06L612 150v-5h2l2 2v-2h2z" style="fill:#397e9b"/><path d="M518 256q1.97.49 4 1v2c1.14-.25 1.14-.25 2.31-.5 2.69-.5 2.69-.5 5.69-.5q.49-.99 1-2v2h2v2q1.97.49 4 1h-19q1.48-.49 3-1v-2q-1.48-.49-3-1z" style="fill:#689fb2"/><path d="M555 229q.49 1.48 1 3h-2v2q-.95.15-1.94.31-1.01.34-2.06.69-.49 1.48-1 3c-2.97-.5-2.97-.5-6-1 .69-2.38.69-2.38 2-5 2.63-1.31 2.63-1.31 5-2q.49.99 1 2 1.97-.49 4-1z" class="s80"/><path d="M2752 412c7 .99 11.82 5.25 16.14 10.69q2.52 3.59 4.86 7.31h-3q-2.09-2.94-4-6l-1.75-1.75L2763 421v-2l-1.56-.75c-3.21-1.65-6.32-3.45-9.44-5.25z" style="fill:#92acc6"/><path d="M633.63 309.75C636 311 636 311 637 314h-2v2h-2q-.49.99-1 2-.99-2.46-2-5v2q-1.97-.99-4-2 1.48-.49 3-1-.49-.99-1-2c3-1 3-1 5.63-.25" class="s39"/><path d="m589 240 7 2q-.49.99-1 2-.99-.49-2-1 .28.92.56 1.88C594 247 594 247 593 249q.49 1.48 1 3-1.97-.49-4-1 .49-1.97 1-4-1.97-.49-4-1 .99-2.95 2-6" class="s82"/><path d="M676 249h5v3q.99.49 2 1-.49.99-1 2h-3v2h-2v2q-2.46.49-5 1 .71-.65 1.44-1.31c1.8-1.71 1.8-1.71 2.56-4.69q.49-1.48 1-3-.49-.99-1-2" style="fill:#357b99"/><path d="m716 240 12 2v2h-5v3l-9-1q.99-2.95 2-6" style="fill:#377a9b"/><path d="M1505 537h2c3 5.75 3 5.75 3 8h2q.49 2.46 1 5h2v3h2v3h-2c-1.62-2.39-3.11-4.76-4.56-7.25q-.62-1.02-1.25-2.07c-1.92-3.23-3.41-5.98-4.19-9.68" style="fill:#c2d0de"/><path d="M626 326c2.78 1.39 4.12 3.56 6 6q-.99 1.97-2 4v-2q-2.46.49-5 1l-2-7q1.48-.99 3-2" class="s61"/><path d="M643 273h4q-.49 2.95-1 6h-3v2q-1.17-.49-2.38-1c-2.46-1.12-2.46-1.12-4.62-1v-2l7-2z" style="fill:#397d9b"/><path d="M533 246q.49 1.97 1 4h2q.49-.99 1-2l1 1 2-2v2h2q.49 2.46 1 5h-2v2q-1.48.49-3 1 .49-1.97 1-4c-1.18-.22-1.18-.22-2.38-.44C534 252 534 252 532 251q.49-2.46 1-5" style="fill:#367b99"/><path d="M634 239q.99.49 2 1-.49.99-1 2h5q.49 1.48 1 3l2 2h-7v-2q-2.96.49-6 1v-2q.99-.49 2-1v-2h2z" class="s88"/><path d="M523 238q.99.49 2 1 1.99.53 4 1 .49 1.97 1 4h-2v-3h-2q-.49 2.95-1 6-.58-.71-1.19-1.44c-2.22-1.91-3.94-2.17-6.81-2.56q.99-.49 2-1-.49-1.48-1-3h2v3h2q-.49-1.48-1-3 .99-.49 2-1" style="fill:#458da0"/><path d="M695 239q1.97.49 4 1v2l3.38.75c3.62 1.25 3.62 1.25 5.06 3.38.28.92.28.92.56 1.87h-3l-2-2q-1.48-.49-3-1v-2h-2v2q-1.48-.49-3-1v-2q-.99-.49-2-1h2z" class="s90"/><path d="M656 255h6v2q1.97-.49 4-1 .49 1.48 1 3c-2.96 1.48-5.74 1.06-9 1v-2q-1.48.49-3 1 .49-1.97 1-4" style="fill:#3a7e9c"/><path d="M621 282q.99.49 2 1c-.99 1.49-.99 1.49-2 3v5h-6q-.49-.99-1-2 1.97-.49 4-1-.99-2.46-2-5h2v2h2q.49-1.48 1-3m-7 9q.49.99 1 2 .99.49 2 1-1.97.49-4 1 .49-1.97 1-4" style="fill:#4991a2"/><path d="M617 318h2l1 1q1.99.54 4 1 .49 1.97 1 4 1.97-.49 4-1v2h-5v2h-2q.49-1.97 1-4h-5q-.49-2.46-1-5" style="fill:#357a9a"/><path d="M617 355q1.48.49 3 1c.81 1.81.81 1.81 1 4-.94 2.25-.94 2.25-2 4h-7v-4q2.46-.49 5-1z" style="fill:#3c7999"/><path d="M657 239q1.97.49 4 1-.55 1.11-1.13 2.25c-1.17 2.69-1.17 2.69 0 5.06.56.84.56.84 1.13 1.69h-6q-.99-2.95-2-6h4z" class="s95"/><path d="M653 230h2q-.49 2.95-1 6h-3q.49 1.48 1 3c-2.17-.51-4-1-6-2v-2q.89-.4 1.81-.81c2.23-1.08 2.23-1.08 3.81-2.81z" class="s42"/><path d="M552 238c1.98.5 1.98.5 4 1q.18 1.2.38 2.44c.3 1.27.3 1.27.62 2.56q.99.49 2 1v2q-2.46.49-5 1-.49-1.97-1-4h-2q.49-2.95 1-6" class="s76"/><path d="M706 234q1.97.49 4 1v5q-1.97-.49-4-1-.49.99-1 2l1 1q-.49.99-1 2h-4q.49-2.95 1-6 2.46-.49 5-1-.49-1.48-1-3" class="s96"/><path d="M627 198q2.51.43 5 1v3h-2v2h-2v2h-2q-.99-1.48-2-3h-2v-2c2.48.5 2.48.5 5 1q.49-.99 1-2-.99-.49-2-1z" class="s50"/><path d="M622 143q.49 1.48 1 3-.49.99-1 2 .99.49 2 1h-3v2q1.48.49 3 1h-2q-.49.99-1 2v-2h-2q.49 1.48 1 3h-2v-2h-2q-.49.99-1 2-.49-1.97-1-4h6q-.49-1.48-1-3h2v-2q-.99-.49-2-1h3z" class="s97"/><path d="M3025 509h2q.76 2.81 1.5 5.63.42 1.55.84 3.16c.65 3.17.78 5.99.66 9.21-1.84-2.76-2.68-4.75-3.63-7.88q-.38-1.25-.78-2.55c-.6-2.61-.7-4.9-.59-7.57" class="s53"/><path d="M693 230c2 1 2 1 2.69 2.88C696 235 696 235 695 238q-2.46-.49-5-1-.49-2.46-1-5c1.88-1.06 1.88-1.06 4-2" style="fill:#3e859d"/><path d="M640 216q1.48.49 3 1v2h-2v3h2q.49 2.46 1 5-2.46.49-5 1l.63-1.63c.5-3.2-.48-5.38-1.63-8.37z" class="s50"/><path d="M701 248h4l2 2h3v2l-7 1v3q-1.97-.49-4-1 .99-.49 2-1-.49-.99-1-2h3v-2z" class="s80"/><path d="M608 232h2v2q1.48.49 3 1h-3c-1.16 3.48-.71 5.46 0 9q-.49-.99-1-2-.99-.49-2-1 .49-.99 1-2h-2q-.49 1.48-1 3h-2v-2h2v-2h2v-4q.49-.99 1-2" style="fill:#4891a2"/><path d="M639 335q.49.99 1 2 .99.49 2 1-.49.99-1 2h2q.49-.99 1-2c-.5 3.69-1.1 5.6-4 8q-.18-.95-.38-1.94-.3-1.01-.62-2.06-.99-.49-2-1h3v-2h-2q.49-1.97 1-4" class="s26"/><path d="M617 253q.99.49 2 1v2q1.48.49 3 1-.49 1.97-1 4-1.14-.28-2.31-.56c-2.78-.67-2.78-.67-5.69.56v-2h2z" class="s88"/><path d="M636 245v5c-3.11 0-5.11-.17-8-1v2h-2v-3q-.99-.49-2-1c3 0 3 0 6 1v-2c2.08-.55 3.84-1 6-1" class="s42"/><path d="M715 236q.49.99 1 2 2.97 1.09 6 2c-.99.5-.99.5-2 1q-.49.99-1 2l-2-2c-2.17.83-2.17.83-3 3q-.49-1.48-1-3h2v-3q-2.46.99-5 2v-2q2.46-.99 5-2" class="s70"/><path d="M715 228h4v2h2v-2q2.96.99 6 2 .49-.99 1-2v3q-2.96.99-6 2v-2q-1.97.49-4 1-.49-1.48-1-3-.99-.49-2-1m-57 0h4v2h2v-2q2.96.99 6 2 .49-.99 1-2v3q-2.96.99-6 2v-2q-1.97.49-4 1-.49-1.48-1-3-.99-.49-2-1" class="s100"/><path d="m687 226 17 1v3q-2.96-.99-6-2v2l-11-3z" style="fill:#649cb0"/><path d="M621 201q.49.99 1 2 1.48-.49 3-1 .18.95.38 1.94c.3 1.02.3 1.02.62 2.06q.99.49 2 1h-2v2q-1.48-.49-3-1h2q-.49-1.97-1-4h-2q.49 1.48 1 3h-2q.49 1.48 1 3h-2q-.49-1.97-1-4h2v-2q-.99-.49-2-1h2z" style="fill:#4c94a4"/><path d="M625 126h8q.49 1.97 1 4-1.48.49-3 1l-1-1c-2.05.41-2.05.41-4 1q-.49-2.46-1-5" class="s50"/><path d="M2615 517c2.5 4.62 5 9.7 5 15h-2q-1.05-2.62-2.06-5.25l-1.16-2.95c-.79-2.84-.8-4.09.22-6.8" style="fill:#81a1bf"/><path d="M694 226h19q-.49.99-1 2c-5.45 1.28-5.45 1.28-8 0q-2.56-.34-5.13-.56-1.35-.13-2.75-.26L694 227z" style="fill:#9cbbcb"/><path d="M638 355q.49.99 1 2c2.02.65 2.02.65 4 1q.49-.99 1-2v2h2q.49-.99 1-2v8h-1v-5h-2q-.49.99-1 2v-2q-2.46-.49-5-1 .49 1.48 1 3h-2q.49-2.95 1-6" style="fill:#4c93a4"/><path d="M648 254h2c2 3 2 3 2 6l-8 2v-2q1.48-.99 3-2c.72-2.06.72-2.06 1-4" style="fill:#3f849e"/><path d="M2115 491h2q-.21 2.69-.44 5.38-.12 1.48-.24 3.02c-.32 2.6-.32 2.6-1.32 4.6h-2z" style="fill:#cedae5"/><path d="M573 226h19v1q-1.3.09-2.63.18-1.72.13-3.5.26-1.69.12-3.44.24c-3.18.3-6.29.75-9.43 1.32z" style="fill:#a0becd"/><path d="M594 228q1.97.99 4 2 .49-.99 1-2 1.97.99 4 2-2.15.83-4.31 1.63l-2.43.91q-1.11.23-2.26.46-1.48-.99-3-2z" style="fill:#337898"/><path d="M639 183c3 3.75 3 3.75 3 6l-7-1c.31-1.94.31-1.94 1-4q1.48-.49 3-1" style="fill:#3a7d9c"/><path d="M634 239v2h-2q.49 1.48 1 3h-3v2q-.99-.49-2-1 .49-1.97 1-4-1.48-.99-3-2c2.86-1.43 4.93-.6 8 0" class="s70"/><path d="M577 228v2c-2.65 2.36-4.62 3.87-8 5l-2-2q1.93-1.26 3.88-2.5 1.07-.69 2.17-1.41C575 228 575 228 577 228" class="s62"/><path d="m580.85 226.9 6.15.1q.49 1.48 1 3h-2v-2c-.99.49-.99.49-2 1q.49 1.48 1 3h-2v-2q-1.48.49-3 1v-2q-.99-.49-2-1c1-1 1-1 2.85-1.1" style="fill:#5094a6"/><path d="M631 138q1.97.99 4 2l-2 2c-.99 1.49-.99 1.49-2 3v-2q-1.97.49-4 1 .49-1.97 1-4h3z" class="s100"/><path d="M631 282c2 3 2 3 1.63 5.19L632 289q-2.46-.49-5-1-.49-1.48-1-3l2-2q.49.99 1 2 .99-1.48 2-3" class="s26"/><path d="M644 280h2v8q-1.97.49-4 1-.49-1.97-1-4h3z" class="s82"/><path d="m587 251 7 1q-.49 1.97-1 4-2.46-.49-5-1-.49.99-1 2c-1.13-3.75-1.13-3.75 0-6" class="s46"/><path d="M554 248q.99.49 2 1c.63 3.06.63 3.06 1 6q-1.97-.49-4-1-.49-2.46-1-5 .99-.49 2-1" style="fill:#41889e"/><path d="M632 337q-.49 2.95-1 6-2.46.49-5 1 .49-1.48 1-3h2v-2q-1.48.49-3 1v-2c2-1 2-1 6-1" style="fill:#35799a"/><path d="M537 239h2c.08 3.04-.02 5.07-1 8q-1.97-.49-4-1c1.88-5.88 1.88-5.88 3-7" class="s82"/><path d="M534 232c1.94.31 1.94.31 4 1q.49 1.48 1 3c-.99.5-.99.5-2 1q-1.48-.49-3-1-.49.99-1 2l-3-3q1.97-.49 4-1z" style="fill:#4790a1"/><path d="M633 323c3.47 1.49 3.47 1.49 7 3q-1.48.49-3 1-.99-.49-2-1v2q.99.49 2 1-1.48.49-3 1-.49-1.48-1-3l-2-2h2z" style="fill:#317697"/><path d="M624 317q.49.99 1 2 1.48.49 3 1 .49 1.48 1 3-1.97.49-4 1-.18-.95-.38-1.94c-.3-1.02-.3-1.02-.62-2.06q-.99-.49-2-1h2z" class="s90"/><path d="M677 257h2v2l8 1v1h-11q-.49-.99-1-2h2z" style="fill:#70a3b6"/><path d="M598 238c2.48.99 2.48.99 5 2v2q-2.96.49-6 1 .49-2.46 1-5" class="s88"/><path d="M599 226c-1.21 1.52-1.21 1.52-3 3-2.26.07-2.26.07-4.69-.31-1.21-.18-1.21-.18-2.45-.37q-.91-.16-1.86-.32v-1c4.05-.98 7.84-1.08 12-1" style="fill:#6fa1b5"/><path d="M542 226c-1.21 1.52-1.21 1.52-3 3-2.26.07-2.26.07-4.69-.31-1.21-.18-1.21-.18-2.45-.37q-.91-.16-1.86-.32v-1c4.05-.98 7.84-1.08 12-1" style="fill:#70a0b5"/><path d="M629 196v2c-.99.5-.99.5-2 1q.49 1.97 1 4-2.96-.99-6-2c.81-1.94.81-1.94 2-4 3-1 3-1 5-1" class="s90"/><path d="M2111 512h2l-3 9q-1.48-.49-3-1z" style="fill:#4a7ea4"/><path d="M525 253q.99.49 2 1-.49.99-1 2h2q-.49 1.48-1 3h-5v-3h3z" class="s20"/><path d="M609 249h5q.99 2.46 2 5c-1.88.63-1.88.63-4 1l-2-2q.49-1.48 1-3-.99-.49-2-1" style="fill:#347998"/><path d="M526 239q1.48.49 3 1c.69 2.06.69 2.06 1 4h-2v-3h-2q-.49 2.95-1 6-.99-1.48-2-3 1.48-2.46 3-5" class="s97"/><path d="M548 228q2.96.99 6 2 .49-.99 1-2v3q-2.96.99-6 2v-2q-.99-.49-2-1 .49-.99 1-2" style="fill:#327698"/><path d="M3027 440h1c.13 6.63.13 6.63-1 10h-2c.88-7.75.88-7.75 2-10" style="fill:#cdd9e5"/><path d="M2104 435c4 1 4 1 5.25 2.88.75 2.12.75 2.12.75 5.12h-2z" style="fill:#83a9c0"/><path d="M577 244c2 0 2 0 3.63 1.5q.67.74 1.37 1.5.49-.99 1-2v2q.99.49 2 1-.49.99-1 2h-2v-2q-1.48.49-3 1-.99-2.46-2-5" style="fill:#4992a3"/><path d="M582 228h4v2h2v-2q1.97.99 4 2l-7 2q-.49-1.48-1-3-.99-.49-2-1" class="s95"/><path d="M640 162h3q.49 1.48 1 3-1.48.49-3 1-.49.99-1 2v-2q-.99-.49-2-1 .99-1.48 2-3" style="fill:#478fa2"/><path d="M2626 548c2.76.38 3.84.84 5.81 2.88q.59 1.04 1.19 2.12-.49 1.48-1 3-.99-1.97-2-4h-2v-3q-.99-.49-2-1" style="fill:#b9c9da"/><path d="m716 256 2 2c-1.19 1.56-1.19 1.56-3 3-2.69-.31-2.69-.31-5-1v-2q1.97.49 4 1v-2q.99-.49 2-1" style="fill:#4d92a5"/><path d="M632 255c2 2 2 2 2 6h-4q-.49-1.48-1-3z" class="s25"/><path d="M743 244v7c-2-1-2-1-3-3q-1.48-.99-3-2c3.75-2 3.75-2 6-2" class="s26"/><path d="M698 243c2 0 2 0 3.63 1.5q.67.74 1.37 1.5.49-.99 1-2 .49 1.97 1 4c-2.97-.5-2.97-.5-6-1q-.49-1.97-1-4" style="fill:#377a9a"/><path d="M728 232c2 3 2 3 1.63 5.69L729 240q-1.48-.49-3-1-.49-1.48-1-3 .49-.99 1-2h2z" style="fill:#327797"/><path d="M635 126h3l2 7c-1.94-.69-1.94-.69-4-2-.75-2.63-.75-2.63-1-5" class="s82"/><path d="M640 350c-.75 4.75-.75 4.75-3 7q-.99-2.46-2-5c3-2 3-2 5-2" class="s88"/><path d="M644 326q1.48.49 3 1v2h-2v2q-1.97-.99-4-2z" class="s82"/><path d="M634 300v2h-3q.49 1.48 1 3-1.48.49-3 1-.49-2.46-1-5c2.08-.55 3.84-1 6-1" class="s18"/><path d="M632 282h2l.88 1.88c1.06 2.25 1.06 2.25 3.12 4.12-4.75-.88-4.75-.88-7-2q.49-1.97 1-4" style="fill:#367b9a"/><path d="m718 255-4 2v2q-1.48-.49-3-1v-3c4.75-1.13 4.75-1.13 7 0" style="fill:#357a99"/><path d="M571 245q.99 1.48 2 3-.49.99-1 2-.99-.49-2-1l-1 1q-.99-.49-2-1v-3c1.98.5 1.98.5 4 1z" class="s69"/><path d="M571 228q1.48.49 3 1c-2.62 2.15-4.64 3.4-8 4q.49-1.97 1-4c1.98.5 1.98.5 4 1z" style="fill:#327798"/><path d="M624 209q2.46.49 5 1 .49 1.48 1 3l-7-1q.49-1.48 1-3" class="s82"/><path d="M626 184h8v2l-6 3v-3h-2z" class="s96"/><path d="M622 178h3v2c2.97.5 2.97.5 6 1q-.95.18-1.94.38-1.01.3-2.06.62-.49.99-1 2c-4-4.88-4-4.88-4-6" style="fill:#4992a2"/></svg>