<svg width="597" height="100" viewBox="0 0 597 100" fill="none" xmlns="http://www.w3.org/2000/svg">
<mask id="mask0_16_11" style="mask-type:luminance" maskUnits="userSpaceOnUse" x="0" y="0" width="593" height="100">
<path d="M592.481 0H0V100H592.481V0Z" fill="white"/>
</mask>
<g mask="url(#mask0_16_11)">
<path d="M424.817 85.5942C424.786 85.7983 424.803 86.0067 424.867 86.2025C424.931 86.3983 425.041 86.5767 425.187 86.7225C425.332 86.8683 425.511 86.9783 425.708 87.0425C425.904 87.1067 426.112 87.1242 426.316 87.0925H437.548V37.1451H434.128C431.896 37.0416 429.712 37.8047 428.03 39.2745C426.348 40.7444 425.301 42.8073 425.107 45.0315C421.818 39.0116 415.4 36.1198 407.799 36.1198C394.779 36.1198 383.364 46.6351 383.364 62.9338C383.364 78.5489 391.57 88.3808 406.194 88.3808C416.715 88.3808 421.108 83.57 421.108 78.8643C421.171 77.9101 421.013 76.9542 420.649 76.0701C420.284 75.186 419.721 74.3973 419.004 73.7644C417.751 74.9068 416.281 75.7863 414.682 76.3507C413.082 76.9152 411.386 77.1531 409.693 77.0504C403.091 77.0504 397.173 73.3438 397.173 62.9338C397.173 53.0494 403.985 48.1335 411.087 48.1335C420.214 48.1335 424.817 54.0483 424.817 62.6446V85.5942ZM504.725 25.6309L528.398 87.0925H514.877C514.389 87.1392 513.901 87 513.511 86.7033C513.121 86.4058 512.857 85.9725 512.773 85.4892L494.046 34.3323L484.024 61.5668H490.547C496.545 61.5668 498.859 63.8538 500.253 67.5604L501.963 72.082C502.357 73.0809 501.963 73.7644 500.937 73.7644H479.527L474.713 87.0925H462.298C462.085 87.1208 461.867 87.09 461.669 87.0033C461.472 86.9175 461.302 86.7792 461.177 86.6033C461.053 86.4275 460.979 86.2208 460.963 86.0058C460.947 85.7908 460.991 85.5758 461.088 85.3842L483.236 27.5499C485.524 21.5562 488.496 19.6635 493.757 19.6635H504.751C505.566 19.6635 505.856 20.0841 505.856 20.5836C505.856 21.6877 504.252 21.9768 504.252 23.6856C504.306 24.3549 504.465 25.0115 504.725 25.6309ZM314.055 85.5942C314.025 85.7983 314.042 86.0067 314.106 86.2025C314.17 86.3983 314.28 86.5767 314.426 86.7225C314.571 86.8683 314.75 86.9783 314.946 87.0425C315.143 87.1067 315.351 87.1242 315.555 87.0925H326.76V37.1451H323.367C321.135 37.0416 318.951 37.8047 317.269 39.2745C315.587 40.7444 314.54 42.8073 314.345 45.0315C311.057 39.0116 304.639 36.1198 297.038 36.1198C283.887 36.1198 272.602 46.6351 272.602 62.9338C272.602 78.5489 280.809 88.3808 295.433 88.3808C305.954 88.3808 310.347 83.57 310.347 78.8643C310.41 77.9101 310.252 76.9542 309.888 76.0701C309.523 75.186 308.96 74.3973 308.243 73.7644C306.99 74.9068 305.52 75.7863 303.921 76.3507C302.321 76.9152 300.625 77.1531 298.932 77.0504C292.33 77.0504 286.412 73.3438 286.412 62.9338C286.412 53.0494 293.224 48.1335 300.326 48.1335C309.453 48.1335 314.055 54.0483 314.055 62.6446V85.5942ZM255.137 38.8275C255.489 38.2028 256.021 37.6983 256.664 37.3795C257.306 37.0608 258.03 36.9424 258.741 37.0399H273.26L251.823 60.9621L273.76 87.0925H258.873C258.159 87.1842 257.435 87.06 256.793 86.7367C256.151 86.4133 255.62 85.9058 255.269 85.2783L238.83 65.1683V87.0925H227.625C227.42 87.1242 227.212 87.1067 227.016 87.0425C226.82 86.9783 226.642 86.8683 226.496 86.7225C226.35 86.5767 226.24 86.3983 226.175 86.2025C226.111 86.0067 226.095 85.7983 226.125 85.5942V25.9201C226.14 23.4563 227.124 21.0973 228.868 19.355C230.611 17.6128 232.972 16.6278 235.436 16.6141H238.83V57.2555L255.137 38.8275ZM195.062 25.6835L218.735 87.145H205.294C204.805 87.1917 204.317 87.0533 203.927 86.7558C203.537 86.4583 203.273 86.025 203.189 85.5417L184.462 34.3323L174.441 61.5668H180.964C186.96 61.5668 189.276 63.8538 190.669 67.5604L192.379 72.082C192.773 73.0809 192.379 73.7644 191.379 73.7644H169.942L165.13 87.0925H152.714C152.501 87.1208 152.283 87.09 152.086 87.0033C151.888 86.9175 151.718 86.7792 151.594 86.6033C151.469 86.4275 151.395 86.2208 151.38 86.0058C151.364 85.7908 151.407 85.5758 151.505 85.3842L173.651 27.5499C175.94 21.5562 178.912 19.6635 184.173 19.6635H195.193C195.983 19.6635 196.272 20.0841 196.272 20.5836C196.272 21.6877 194.694 21.9768 194.694 23.6856C194.711 24.352 194.845 25.0103 195.088 25.6309L195.062 25.6835ZM559.198 46.3985V85.5942C559.166 85.7983 559.184 86.0067 559.248 86.2025C559.312 86.3983 559.422 86.5767 559.568 86.7225C559.714 86.8683 559.892 86.9783 560.089 87.0425C560.285 87.1067 560.493 87.1242 560.697 87.0925H571.902V62.1713C571.791 60.4091 572.042 58.6426 572.641 56.9813C573.24 55.32 574.173 53.7992 575.384 52.5129C576.594 51.2267 578.056 50.2023 579.679 49.5033C581.301 48.8043 583.05 48.4454 584.817 48.449C586.761 48.3484 588.705 48.6528 590.525 49.3428C591.65 47.1354 592.303 44.7183 592.445 42.245C592.445 39.2482 590.84 36.4353 585.422 36.4353C580.003 36.4353 574.901 39.8528 571.902 46.9506V37.0399H568.509C567.268 36.9669 566.026 37.1578 564.865 37.6C563.704 38.0423 562.649 38.7257 561.772 39.6053C560.894 40.4848 560.214 41.5403 559.774 42.7023C559.335 43.8643 559.147 45.1062 559.224 46.3459L559.198 46.3985ZM535.762 46.3985C535.776 43.9347 536.761 41.5757 538.505 39.8334C540.247 38.0912 542.608 37.1063 545.074 37.0925H548.466V87.04H537.262C537.057 87.0708 536.849 87.0542 536.652 86.99C536.456 86.9258 536.278 86.8158 536.132 86.67C535.986 86.5242 535.877 86.3458 535.813 86.15C535.748 85.9542 535.731 85.7458 535.762 85.5417V46.3985ZM334.046 78.1808C334.046 84.7792 345.671 88.1967 355.088 88.1967C367.398 88.1967 377.524 82.3869 377.524 71.9768C377.524 64.2744 373.632 59.7528 364.215 57.4658L353.694 54.837C351.064 54.1273 349.486 53.0231 349.486 50.5258C349.486 48.0283 351.984 46.6088 356.798 46.6088C362.425 46.6787 367.91 48.3871 372.58 51.5247C374.432 49.7448 375.605 47.3736 375.894 44.8213C375.894 39.2218 366.688 35.9096 356.561 35.9096C345.751 35.9096 335.834 41.3249 335.834 51.6824C335.834 59.5688 339.754 64.3796 348.565 66.3775L359.376 69.0063C362.164 69.5846 363.768 70.7939 363.768 73.1073C363.768 75.9989 361.374 77.4973 355.562 77.4973C348.965 77.2758 342.573 75.1583 337.15 71.3985C335.28 73.1757 334.168 75.605 334.046 78.1808ZM542.285 13.9064C540.192 13.9064 538.186 14.7373 536.706 16.2163C535.226 17.6953 534.394 19.7013 534.394 21.7928C534.394 23.8844 535.226 25.8904 536.706 27.3694C538.186 28.8483 540.192 29.6793 542.285 29.6793C543.341 29.7109 544.392 29.5303 545.378 29.1483C546.363 28.7661 547.261 28.1903 548.018 27.4548C548.776 26.7193 549.379 25.8391 549.79 24.8665C550.201 23.8939 550.413 22.8487 550.412 21.7928C550.413 20.7369 550.201 19.6918 549.79 18.7192C549.379 17.7466 548.776 16.8664 548.018 16.1309C547.261 15.3954 546.363 14.8195 545.378 14.4374C544.392 14.0553 543.341 13.8748 542.285 13.9064Z" fill="#5C0FD9"/>
<path d="M0.394851 97.4767L37.2188 35.0421C37.8237 34.0431 38.2183 33.6225 38.8233 33.6225C39.4282 33.6225 39.8491 34.1482 40.3488 34.9369C44.9078 42.6158 47.3239 51.3759 47.3454 60.3049C47.3454 83.7275 28.9334 99.895 2.42017 99.895C1.92041 99.895 0.000309441 99.895 0.000309441 98.6858C-0.00746573 98.25 0.131478 97.8242 0.394851 97.4767Z" fill="#FF6300"/>
<path d="M84.774 39.6951L117.021 97.2658C117.837 98.6858 117.337 99.895 115.312 99.895C91.6395 99.895 80.6447 91.0092 71.7543 75.1314L46.8982 30.7045C45.7015 28.9321 45.0021 26.8714 44.8729 24.7371C45.1277 22.1041 46.0314 19.5752 47.5032 17.3764L50.6332 11.8297C55.0783 3.62776 59.9181 0 71.3335 0H79.4348C80.6447 0 80.7499 0.920083 80.1449 1.60358C77.3365 4.96987 75.8915 9.26533 76.0943 13.6435C76.0943 19.6898 78.3301 28.0758 84.774 39.6951Z" fill="#FF6300"/>
</g>
</svg>
