<svg width="330" height="100" viewBox="0 0 330 100" fill="none" xmlns="http://www.w3.org/2000/svg">
<g clip-path="url(#clip0_17_127)">
<path d="M311.42 6.77392L306.34 29.6348C306.224 30.1656 305.93 30.6408 305.508 30.9823C305.085 31.3237 304.56 31.5109 304.017 31.5131H296.8C296.475 31.5125 296.152 31.4452 295.854 31.3154C295.555 31.1855 295.286 30.9959 295.063 30.7581C294.84 30.5202 294.668 30.2393 294.558 29.9325C294.447 29.6256 294.401 29.2994 294.421 28.9739V28.5522C294.768 21.0957 290.066 15.5261 279.419 15.5261C261.716 15.5261 248.846 30.0609 247.157 49.1522C245.416 68.8652 259.189 80.3261 278.247 80.3217C285.653 80.3388 293.02 79.2395 300.1 77.0609C300.494 76.9366 300.913 76.9165 301.316 77.0026C301.72 77.0887 302.094 77.2781 302.403 77.5522C302.712 77.8263 302.944 78.1758 303.078 78.5667C303.212 78.9576 303.242 79.3765 303.166 79.7826L300.908 91.5957C300.816 92.088 300.592 92.5462 300.261 92.922C299.93 93.2977 299.504 93.577 299.028 93.7304C295.12 94.9783 284.152 97.9044 267.357 97.9044C227.466 97.9044 211.283 74.9478 213.784 51.5478C216.028 30.7087 229.815 1.13674e-05 284.156 1.13674e-05C292.704 -0.00419981 301.212 1.16167 309.445 3.46523C310.136 3.65461 310.727 4.10412 311.096 4.71987C311.464 5.33562 311.58 6.07433 311.42 6.77392ZM84.6103 3.5174L83.2903 9.47827C83.1471 10.121 83.2519 10.7941 83.5837 11.3626C83.9155 11.9311 84.4498 12.353 85.0793 12.5435C87.3762 13.4304 87.8843 15.6348 85.8826 17.287L52.5048 45.0435L58.2364 18.887C59.2133 14.8739 62.4005 13.2435 64.4152 12.5696L64.7408 12.4652C65.1744 12.3289 65.5647 12.0815 65.8732 11.7474C66.1817 11.4133 66.3976 11.0043 66.4994 10.5609L67.8672 4.36088C67.9436 4.01597 67.9414 3.65823 67.8605 3.31431C67.7797 2.9704 67.6224 2.64918 67.4004 2.3746C67.1783 2.10003 66.8973 1.87917 66.5781 1.72849C66.259 1.57781 65.91 1.5012 65.5572 1.50436H22.5269C21.9373 1.50662 21.3658 1.70911 20.906 2.07871C20.4462 2.44832 20.1252 2.96318 19.9955 3.53914L18.606 9.81305C18.4707 10.4318 18.5688 11.0789 18.8814 11.6296C19.1941 12.1802 19.6992 12.5956 20.2994 12.7957L20.7249 12.9391C23.4257 14 26.5564 16.3783 25.2407 22.6435L14.9499 69.6348C12.2708 82.4696 7.92006 85.087 3.77769 85.5652H3.64742C3.10864 85.6312 2.60312 85.8614 2.19927 86.2245C1.79543 86.5877 1.51276 87.0663 1.38953 87.5957L0.060846 93.6174C-0.0176593 93.9806 -0.0138836 94.3568 0.0718957 94.7183C0.157675 95.0799 0.323277 95.4176 0.55653 95.7066C0.789782 95.9956 1.08476 96.2286 1.41977 96.3885C1.75478 96.5484 2.12131 96.6311 2.49242 96.6304H47.7198C48.2498 96.6328 48.7651 96.4553 49.1814 96.1268C49.5978 95.7984 49.8907 95.3383 50.0124 94.8217L51.5756 87.7783C51.6976 87.2225 51.6177 86.6415 51.3503 86.1394C51.0829 85.6374 50.6455 85.2473 50.1166 85.0391L49.8214 84.9217C47.5331 83.9913 44.4068 82.013 45.2057 78.2826L50.4683 54.2522C68.5055 87.1783 74.4585 96.6652 96.0952 96.6609H115.617C116.152 96.6627 116.672 96.4813 117.09 96.1467C117.507 95.8122 117.798 95.3447 117.914 94.8217L119.282 88.7174C119.365 88.3512 119.366 87.9712 119.284 87.6047C119.203 87.2381 119.042 86.8942 118.811 86.5977C118.581 86.3012 118.289 86.0595 117.954 85.89C117.619 85.7205 117.251 85.6274 116.877 85.6174C111.987 85.5435 109.59 84.4087 104.732 78.1565L79.6647 44.2087L112.243 17.1174C116.612 13.6957 121.944 12.7391 124.896 12.3435L125.196 12.3131C125.7 12.266 126.175 12.0601 126.555 11.7248C126.934 11.3896 127.197 10.9425 127.306 10.4478L128.639 4.43045C128.72 4.07944 128.721 3.71462 128.642 3.36323C128.562 3.01185 128.405 2.68298 128.18 2.4012C127.956 2.11942 127.671 1.89201 127.347 1.73596C127.023 1.57991 126.667 1.49925 126.308 1.50001H87.1157C86.5325 1.50313 85.9675 1.70375 85.5126 2.06925C85.0577 2.43474 84.7397 2.94795 84.6103 3.5174ZM205.138 29.6174H212.763C213.301 29.6144 213.823 29.4294 214.243 29.0924C214.663 28.7554 214.957 28.2862 215.078 27.7609L220.262 4.38697C220.34 4.03928 220.338 3.67852 220.257 3.33154C220.177 2.98456 220.019 2.66029 219.795 2.38285C219.572 2.10542 219.289 1.88196 218.968 1.72911C218.647 1.57626 218.295 1.49795 217.939 1.50001H137.792C137.202 1.50129 136.63 1.70333 136.169 2.07301C135.708 2.4427 135.387 2.95811 135.257 3.53479L133.88 9.77827C133.748 10.3691 133.836 10.988 134.128 11.5183C134.42 12.0486 134.895 12.4535 135.465 12.6565L135.734 12.7522C138.37 13.7609 142.048 16.3174 140.445 22.5957L124.736 93.7826C124.658 94.1288 124.659 94.488 124.739 94.8336C124.82 95.1793 124.976 95.5024 125.198 95.7789C125.42 96.0555 125.702 96.2784 126.021 96.4311C126.341 96.5838 126.691 96.6623 127.046 96.6609H163.094C163.632 96.6602 164.153 96.4766 164.573 96.14C164.993 95.8034 165.286 95.334 165.404 94.8087L166.971 87.7C167.084 87.192 167.018 86.6607 166.784 86.1957C166.551 85.7308 166.165 85.3607 165.69 85.1478L165.343 84.987C163.055 83.8565 159.655 81.2826 160.793 76.3C160.923 75.6304 164.34 60.2044 164.34 60.2044H194.995C195.538 60.201 196.063 60.0127 196.485 59.6705C196.906 59.3283 197.199 58.8526 197.314 58.3217L200.197 45.3217C200.273 44.9732 200.27 44.6121 200.188 44.2649C200.107 43.9177 199.948 43.5932 199.725 43.3151C199.502 43.0371 199.22 42.8125 198.899 42.658C198.578 42.5034 198.226 42.4227 197.87 42.4218H168.27L173.797 17.2131L194.479 17.187C201.165 17.187 203.202 20.6783 202.815 26.6348C202.815 26.6348 202.815 26.7087 202.781 26.9478C202.742 27.2819 202.773 27.6204 202.874 27.9413C202.974 28.2623 203.141 28.5584 203.364 28.8103C203.586 29.0622 203.859 29.2643 204.165 29.4034C204.471 29.5425 204.803 29.6154 205.138 29.6174ZM330 14.1391C329.969 15.6415 329.499 17.1018 328.649 18.34C327.799 19.5781 326.605 20.54 325.215 21.1068C323.826 21.6736 322.3 21.8206 320.828 21.5297C319.356 21.2388 318.001 20.5226 316.93 19.4696C315.494 18.0633 314.665 16.1499 314.62 14.1391C314.665 12.1277 315.494 10.2135 316.93 8.80678C318.367 7.40004 320.297 6.61257 322.306 6.61305C324.316 6.61027 326.247 7.39613 327.685 8.80218C329.124 10.2082 329.955 12.1226 330 14.1348M328.871 14.1348C328.894 13.2587 328.741 12.387 328.422 11.571C328.102 10.755 327.623 10.0113 327.012 9.38366C326.401 8.75605 325.671 8.25725 324.865 7.91668C324.058 7.5761 323.192 7.40064 322.317 7.40064C321.441 7.40064 320.575 7.5761 319.769 7.91668C318.962 8.25725 318.232 8.75605 317.621 9.38366C317.01 10.0113 316.531 10.755 316.212 11.571C315.893 12.387 315.74 13.2587 315.762 14.1348C315.74 15.0109 315.893 15.8826 316.212 16.6986C316.531 17.5146 317.01 18.2583 317.621 18.8859C318.232 19.5135 318.962 20.0123 319.769 20.3529C320.575 20.6935 321.441 20.8689 322.317 20.8689C323.192 20.8689 324.058 20.6935 324.865 20.3529C325.671 20.0123 326.401 19.5135 327.012 18.8859C327.623 18.2583 328.102 17.5146 328.422 16.6986C328.741 15.8826 328.894 15.0109 328.871 14.1348ZM324.355 17.8652C324.16 17.6278 324.031 17.3427 323.982 17.0391L323.713 15.8304C323.487 15.0044 323.07 14.7783 322.21 14.7783H320.643V17.8652H319.358V10.1783H322.671C324.416 10.1783 325.324 10.9304 325.324 12.3652C325.331 12.8517 325.152 13.3226 324.825 13.6821C324.497 14.0415 324.045 14.2625 323.561 14.3C323.899 14.3266 324.218 14.4669 324.466 14.6982C324.715 14.9295 324.878 15.2382 324.929 15.5739L325.272 16.9652C325.341 17.3102 325.493 17.6116 325.727 17.8696L324.355 17.8652ZM322.501 11.1913H320.643V13.7565H322.501C323.522 13.7565 324.004 13.3044 324.004 12.4348C324.004 11.5696 323.526 11.1913 322.501 11.1913Z" fill="#E4002B"/>
</g>
<defs>
<clipPath id="clip0_17_127">
<rect width="330" height="100" fill="white"/>
</clipPath>
</defs>
</svg>
