<svg width="150" height="100" viewBox="0 0 150 100" fill="none" xmlns="http://www.w3.org/2000/svg">
<path d="M48.3333 10.5556H56.1111C57.6278 13.8 58.5333 17.0667 59.4 20.5333L59.8389 22.2778C60.3018 24.1 60.7611 25.9222 61.2167 27.7445C61.5278 28.9852 61.8407 30.2241 62.1555 31.4611C62.9222 34.4945 63.6852 37.5259 64.4444 40.5556C64.5259 40.2074 64.6074 39.8519 64.6889 39.4889C65.5333 35.8407 66.3815 32.1926 67.2333 28.5445L68.1778 24.4556C68.6296 22.4963 69.0852 20.5389 69.5444 18.5833C69.6852 17.9759 69.8259 17.3593 69.9667 16.7333L70.3722 15.0111L70.7222 13.5C71.1111 12.2222 71.1111 12.2222 72.2222 10.5556C74.0333 10.3945 74.0333 10.3945 76.1833 10.45L78.3389 10.4945C78.8833 10.5167 79.437 10.537 80 10.5556C81.5333 13.8 82.3722 17.0445 83.1667 20.5333L83.5722 22.2778L84.8278 27.7445C85.113 28.9852 85.4 30.2241 85.6889 31.4611C86.3889 34.4945 87.0852 37.5259 87.7778 40.5556C90.1722 32.3167 90.1722 32.3167 92.3722 24.0222C92.4648 23.6519 92.5574 23.2778 92.65 22.9C93.0241 21.4222 93.3926 19.9445 93.7555 18.4667C94.0333 17.3556 94.313 16.2445 94.5944 15.1333C94.75 14.4963 94.9093 13.8482 95.0722 13.1889C95.5556 11.6667 95.5556 11.6667 96.6667 10.5556C98.3556 10.4445 98.3556 10.4445 100.35 10.4833L102.35 10.5167C102.854 10.5278 103.367 10.5407 103.889 10.5556C104.639 12.8111 103.917 14.3778 103.217 16.5556C103.083 16.9889 102.946 17.4296 102.806 17.8778C102.361 19.3037 101.913 20.7278 101.461 22.15C101.15 23.1315 100.843 24.113 100.539 25.0945C100.072 26.5796 99.6056 28.0667 99.1389 29.5556C98.1648 32.6482 97.2111 35.7463 96.2778 38.85C96.0519 39.5982 95.8259 40.3445 95.6 41.0889C95.1852 42.4667 94.7741 43.8445 94.3667 45.2222C94.1815 45.8296 93.9926 46.4463 93.8 47.0722C93.6407 47.5982 93.4815 48.1333 93.3222 48.6778C92.7556 50.0556 92.2889 50.7667 91.1111 51.6667C89.55 51.8889 89.55 51.8889 87.7778 51.8722C87.1963 51.8796 86.6056 51.8852 86.0056 51.8889C84.2056 51.6333 83.8833 51.3889 82.7778 50C82.3222 48.7445 82.3222 48.7445 81.9778 47.2611L81.5722 45.5778L81.1556 43.7611L80.7167 41.9C80.2537 39.937 79.7944 37.9722 79.3389 36.0056C79.0278 34.6759 78.7148 33.3463 78.4 32.0167C77.6296 28.7537 76.8667 25.4889 76.1111 22.2222C75.9518 22.8593 75.7907 23.5074 75.6278 24.1667C75.0278 26.5704 74.4278 28.9759 73.8278 31.3833C73.5685 32.4167 73.3111 33.4519 73.0556 34.4889C72.3333 37.3963 71.6037 40.3019 70.8667 43.2056C70.5926 44.2982 70.3241 45.3926 70.0611 46.4889C69.9241 47.0333 69.7852 47.587 69.6444 48.15L69.3167 49.5167C68.8889 50.5556 68.8889 50.5556 67.2222 51.6667C65.7833 51.8333 65.7833 51.8333 64.1667 51.8389C63.637 51.85 63.0981 51.8593 62.55 51.8667C60.8278 51.6278 60.5167 51.3333 59.4444 50C58.8944 48.65 58.8944 48.65 58.4055 47.0167C58.2167 46.3982 58.0241 45.7722 57.8278 45.1389C57.6278 44.4648 57.4259 43.7815 57.2222 43.0889L56.2444 39.8667C56.0148 39.1 55.7852 38.3352 55.5556 37.5722C54.6407 34.5389 53.7074 31.5111 52.7556 28.4889C52.3333 27.1333 51.913 25.7778 51.4944 24.4222C51.2167 23.537 50.9389 22.6537 50.6611 21.7722C50.2685 20.5241 49.8796 19.2741 49.4944 18.0222C49.3759 17.6556 49.2574 17.2833 49.1389 16.9056C48.4333 14.5945 48.3333 13.0667 48.3333 10.5556Z" fill="#242E3D"/>
<path d="M5 63.3333C7.98333 63.6056 10.2056 64.4 12.85 65.8333C45.5278 82.7222 82.3611 85.2889 117.333 74.4111C120.483 73.4056 123.517 72.2833 126.528 70.9111C128.061 70.4722 129.033 70.6667 130.556 71.1111C131.111 71.6667 131.111 71.6667 131.278 72.9778C131.111 74.4445 131.111 74.4445 130.267 75.3722C107.956 90.1556 80.3444 95.3889 54.0611 90.3778C37.2778 86.8889 16.2278 79.2389 5 65.5556V63.3333Z" fill="#FF9900"/>
<path d="M28.0556 9.19999C28.563 9.2037 29.0796 9.20925 29.6056 9.21666C34.2444 9.33333 37.9444 9.98333 41.3556 13.3333C45.5389 19.1555 44.7 27.25 44.7278 34.0667C44.7389 35.4222 44.7537 36.7778 44.7722 38.1333C44.7722 38.5407 44.7704 38.9537 44.7667 39.3722C44.8111 42.2056 45.4667 44.1111 46.6667 46.6667C46.7 48.1611 46.7 48.1611 46.1111 49.4444C44.4111 50.95 43.3556 51.6333 41.0778 51.7722C38.7833 50.8444 37.8944 49.3055 36.6667 47.2222C36.3926 47.4407 36.1148 47.6648 35.8333 47.8944C35.4556 48.187 35.0741 48.4833 34.6889 48.7833C34.3222 49.0722 33.95 49.3648 33.5722 49.6611C30.3111 51.8167 27.4667 52.5167 23.6444 52.4667L22.3833 52.4555C18.4833 52.3389 16.0389 51.55 13.1611 48.75C10.7778 44.8722 9.81111 41.1222 10.8167 36.6111C11.8833 33.3111 13.7278 30.6611 16.6278 28.7278C22.5833 25.6889 29.2222 26.6278 35.5556 27.7778C35.8889 22.7778 35.8889 22.7778 33.8889 18.3333C30.8667 15.95 26.9833 16.2778 23.3333 16.6667C21.4111 17.1722 19.5722 17.7667 17.7111 18.4556C15.9889 18.9222 15.0222 18.8278 13.3333 18.3333C13.1389 16.6278 13.0611 15.0333 13.3333 13.3333C17.0278 9.63888 23.0778 9.14444 28.0556 9.19999ZM20.6278 35.3111C19.1333 37.2167 19.2222 39.05 19.2611 41.4C19.3667 42.9167 19.3667 42.9167 20.5222 44.4778C23.1667 46.15 25.4667 46.3889 28.5389 45.9C31.8389 45.0111 33.6667 43.3555 35.5556 40.5555C36.2556 39.1555 36.1667 38.1611 36.1444 36.5944L36.1333 35.0667L36.1111 33.8889C30.7778 32.4444 25.1833 31.5111 20.6222 35.3111H20.6278ZM134.444 11.6667C135.806 13.7055 135.689 14.8167 135.556 17.2222L135 18.3333C133.306 18.0889 131.772 17.8167 130.161 17.2111C128.033 16.5778 126.056 16.4833 123.856 16.4944C123.278 16.4778 123.278 16.4778 122.683 16.4667C120.217 16.4611 118.594 16.7611 116.667 18.3333C115.922 20.2 115.922 20.2 116.111 22.2222C118.706 25.8 122.811 26.45 126.872 27.6611C131.417 29.1111 134.778 31.0389 137.222 35.2444C138.344 39.2444 137.994 42.4555 136.111 46.1111C133.578 49.8722 130.122 51.6611 125.722 52.6C120.017 53.3944 114.211 52.8111 108.889 50.5555C107.311 48.9555 106.711 48.2555 106.494 46.0055C106.667 44.4444 106.667 44.4444 107.222 43.3333C111.272 43.75 111.272 43.75 113.25 44.4389C118.339 46.0722 123.411 45.8944 128.333 43.8889C129.05 40.65 129.05 40.65 128.161 37.6056C125.356 35.8444 122.289 34.8278 119.156 33.8055C114.533 32.2667 111.261 30.8778 108.406 26.8778C106.917 23.7333 106.767 20.5722 107.778 17.2222C109.156 13.8778 112.089 11.5778 115.311 10.0722C121.506 8.04444 128.644 8.60555 134.444 11.6667Z" fill="#242E3D"/>
<path d="M133.683 60.3833C134.128 60.3722 134.58 60.363 135.039 60.3555C138.039 60.35 140.111 60.8389 142.778 62.2222C143.689 63.1333 143.472 64.1278 143.506 65.3833C143.411 72.5889 140.561 79.7389 135.767 85.1389C134.25 86.2555 133.506 86.3722 131.667 86.1111C132.083 82.8333 133.189 79.9389 134.35 76.8722C136.028 72.4 136.028 72.4 135.556 67.7778C131.689 66.3389 127.95 66.6444 123.889 66.8722C123.248 66.9055 122.6 66.9389 121.944 66.9722C120.37 67.05 118.796 67.1333 117.222 67.2222C117.639 64.55 117.639 64.55 118.872 63.6055C119.567 63.2833 119.567 63.2833 120.278 62.95C120.73 62.7315 121.187 62.5093 121.65 62.2833C125.628 60.8222 129.461 60.3667 133.683 60.3833Z" fill="#FF9900"/>
</svg>
