<svg width="272" height="100" viewBox="0 0 272 100" fill="none" xmlns="http://www.w3.org/2000/svg">
<g clip-path="url(#clip0_17_95)">
<path d="M53.7577 100C49.6233 99.9973 45.503 99.5203 41.4772 98.5785C34.6062 96.9954 28.1171 94.0642 22.3854 89.9544C16.6538 85.8446 11.793 80.6379 8.08512 74.6355C0.582655 62.534 -1.81729 47.948 1.41153 34.0775C4.64035 20.207 13.2341 8.18481 25.3079 0.648627C26.2751 0.0486922 27.4408 -0.142924 28.549 0.115777C29.6572 0.374477 30.618 1.0624 31.2203 2.02874C31.5186 2.50783 31.719 3.04109 31.8112 3.59802C31.9033 4.15495 31.8848 4.7246 31.7568 5.27436C31.6287 5.82413 31.3936 6.34322 31.0648 6.80192C30.7361 7.26062 30.3204 7.64992 29.8411 7.94755C19.6987 14.2784 12.4796 24.3777 9.76751 36.0295C7.05538 47.6814 9.07176 59.9343 15.3744 70.0999C18.4889 75.1425 22.5716 79.5166 27.3868 82.9689C32.2019 86.4211 37.6539 88.8829 43.4262 90.2118C49.1908 91.5728 55.1677 91.7758 61.0113 90.8091C66.8548 89.8423 72.4485 87.7251 77.469 84.5798C78.4361 83.9804 79.6008 83.7891 80.7086 84.0478C81.8164 84.3064 82.7768 84.994 83.3791 85.9599C83.9793 86.9278 84.1719 88.0944 83.914 89.204C83.6561 90.3135 82.9692 91.2754 82.0038 91.8788C73.5344 97.1804 63.7471 99.9944 53.7577 100Z" fill="#F04444"/>
<path d="M91.2446 86.1639C93.7279 86.1639 95.741 84.149 95.741 81.6634C95.741 79.1779 93.7279 77.163 91.2446 77.163C88.7613 77.163 86.7482 79.1779 86.7482 81.6634C86.7482 84.149 88.7613 86.1639 91.2446 86.1639Z" fill="#F04444"/>
<path d="M38.3052 44.2845C38.2419 41.8684 38.6707 39.4645 39.5654 37.2196C40.4602 34.9748 41.8024 32.9361 43.5098 31.2271C45.2172 29.5181 47.2541 28.1747 49.4969 27.2792C51.7397 26.3836 54.1411 25.9544 56.5549 26.0178C59.5708 25.9783 62.5458 26.7207 65.19 28.1729C67.8342 29.625 70.0576 31.7374 71.6444 34.3047L65.6786 37.7663C64.7539 36.1819 63.4168 34.8785 61.8101 33.995C60.2033 33.1115 58.3869 32.681 56.5549 32.7495C55.028 32.6764 53.5029 32.9259 52.0788 33.4822C50.6547 34.0384 49.3634 34.8887 48.2895 35.9777C47.2156 37.0667 46.3831 38.3701 45.846 39.8027C45.3089 41.2353 45.0794 42.765 45.1724 44.2922C45.0848 45.8158 45.3183 47.3409 45.8581 48.7682C46.3978 50.1954 47.2315 51.4927 48.3051 52.5764C49.3786 53.6601 50.668 54.5056 52.0893 55.0579C53.5106 55.6103 55.0321 55.8571 56.5549 55.7824C58.382 55.8557 60.1949 55.4325 61.8011 54.558C63.4074 53.6834 64.7475 52.3902 65.6786 50.8151L71.6444 54.2782C70.0664 56.8536 67.8448 58.9723 65.1986 60.4256C62.5523 61.8789 59.5729 62.6165 56.5549 62.5651C54.141 62.6242 51.7403 62.1916 49.4985 61.2936C47.2567 60.3957 45.2208 59.0511 43.5141 57.3414C41.8073 55.6318 40.4655 53.5927 39.5701 51.3481C38.6747 49.1036 38.2443 46.7005 38.3052 44.2845Z" fill="#101727"/>
<path d="M76.0087 25.2162H82.4763V61.848H76.0087V25.2162Z" fill="#101727"/>
<path d="M100.923 56.6781C101.989 56.7193 103.05 56.5147 104.024 56.0797C104.998 55.6447 105.858 54.9911 106.539 54.1697L111.754 57.18C110.528 58.9207 108.884 60.3251 106.974 61.2633C105.064 62.2016 102.949 62.6438 100.823 62.5492C92.4004 62.5492 87.0857 56.7802 87.0857 49.3028C87.0248 47.5466 87.3257 45.7964 87.9693 44.1615C88.6129 42.5266 89.5857 41.0418 90.8272 39.7992C92.0686 38.5567 93.5521 37.583 95.1855 36.9388C96.8189 36.2945 98.5671 35.9938 100.322 36.0548C107.741 36.0548 113.005 41.9258 113.005 49.3028C113.002 50.1945 112.918 51.0841 112.755 51.9609H93.8526C94.7586 55.2741 97.5161 56.6781 100.923 56.6781ZM106.539 46.9426C106.293 45.4883 105.528 44.1727 104.386 43.2406C103.244 42.3085 101.803 41.823 100.33 41.8746C98.8055 41.7699 97.2955 42.2279 96.0854 43.1616C94.8753 44.0954 94.0488 45.4405 93.762 46.9426H106.539Z" fill="#101727"/>
<path d="M140.137 36.7578L130.612 61.8496H123.243L113.717 36.7578H120.836L126.902 54.3214L133.019 36.7578H140.137Z" fill="#101727"/>
<path d="M154.772 56.678C155.838 56.7193 156.899 56.5146 157.872 56.0796C158.846 55.6446 159.707 54.991 160.388 54.1696L165.602 57.1799C164.377 58.9209 162.733 60.3254 160.823 61.2637C158.913 62.2019 156.797 62.644 154.672 62.5492C146.25 62.5492 140.934 56.7801 140.934 49.3027C140.874 47.5466 141.174 45.7967 141.818 44.1619C142.462 42.5271 143.435 41.0425 144.676 39.7999C145.917 38.5574 147.401 37.5838 149.034 36.9395C150.667 36.2952 152.416 35.994 154.17 36.0547C161.59 36.0547 166.854 41.9257 166.854 49.3027C166.85 50.1946 166.766 51.0842 166.602 51.9609H147.703C148.607 55.2741 151.369 56.678 154.772 56.678ZM160.388 46.9426C160.142 45.4883 159.376 44.1727 158.234 43.2405C157.092 42.3084 155.651 41.8229 154.178 41.8745C152.654 41.7698 151.144 42.2278 149.934 43.1616C148.723 44.0953 147.897 45.4404 147.61 46.9426H160.388Z" fill="#101727"/>
<path d="M214.795 33.3455H205.32V61.8479H198.402V33.3455H188.977V26.7207H214.795V33.3455Z" fill="#101727"/>
<path d="M239.313 36.7574V61.8461H232.844V58.8868C231.862 60.0928 230.611 61.0522 229.193 61.6886C227.774 62.325 226.227 62.6208 224.673 62.5523C218.005 62.5523 212.491 56.7833 212.491 49.3059C212.491 41.8285 218.005 36.0579 224.673 36.0579C226.226 35.9895 227.774 36.2852 229.193 36.9216C230.611 37.558 231.862 38.5175 232.844 39.7233V36.764L239.313 36.7574ZM232.844 49.3028C232.89 48.37 232.743 47.4378 232.41 46.5652C232.078 45.6926 231.568 44.8986 230.913 44.2335C230.258 43.5684 229.472 43.0463 228.605 42.7009C227.738 42.3556 226.809 42.1943 225.877 42.227C224.948 42.1994 224.023 42.3644 223.161 42.7122C222.299 43.06 221.519 43.5831 220.869 44.2479C220.218 44.9127 219.713 45.7049 219.384 46.575C219.055 47.445 218.91 48.3737 218.957 49.3028C218.91 50.2317 219.055 51.1603 219.384 52.0302C219.713 52.9 220.219 53.6918 220.869 54.3565C221.519 55.0211 222.3 55.544 223.162 55.8917C224.023 56.2394 224.948 56.4045 225.877 56.3769C226.809 56.4091 227.738 56.2473 228.604 55.9019C229.471 55.5564 230.256 55.0346 230.91 54.3697C231.565 53.7048 232.075 52.9113 232.407 52.0391C232.739 51.1669 232.887 50.2351 232.841 49.3028H232.844Z" fill="#101727"/>
<path d="M272.002 49.3028C272.002 56.7802 266.488 62.5493 259.769 62.5493C258.221 62.6289 256.678 62.3378 255.265 61.7003C253.853 61.0628 252.613 60.0972 251.649 58.8838V71.8801H245.183V36.7544H251.649V39.7137C252.613 38.5003 253.853 37.535 255.265 36.8976C256.678 36.2601 258.221 35.9687 259.769 36.0482C266.486 36.0546 272.002 41.8254 272.002 49.3028ZM265.534 49.3028C265.58 48.3701 265.432 47.4379 265.1 46.5653C264.767 45.6927 264.258 44.8987 263.603 44.2336C262.948 43.5684 262.162 43.0464 261.295 42.701C260.428 42.3556 259.499 42.1944 258.567 42.2271C257.638 42.1997 256.713 42.3652 255.851 42.7131C254.99 43.061 254.209 43.5836 253.559 44.2484C252.909 44.9131 252.404 45.7055 252.075 46.5754C251.746 47.4453 251.601 48.3739 251.649 49.3028C251.601 50.2316 251.747 51.1601 252.076 52.0299C252.405 52.8996 252.91 53.6916 253.56 54.3561C254.21 55.0207 254.99 55.5432 255.852 55.891C256.714 56.2388 257.638 56.4044 258.567 56.377C259.499 56.4097 260.428 56.2484 261.294 55.9031C262.161 55.5578 262.947 55.0359 263.602 54.3709C264.257 53.7059 264.766 52.912 265.098 52.0396C265.431 51.1672 265.58 50.2354 265.534 49.3028Z" fill="#101727"/>
<path d="M177.915 61.8483H171.465V36.0822H180.405C183.143 35.8984 185.844 36.7994 187.924 38.591C190.004 40.3826 191.297 42.9208 191.523 45.6581L185.137 46.5588C184.593 42.7086 181.914 42.4471 180.793 42.5284H177.913L177.915 61.8483Z" fill="#101727"/>
</g>
<defs>
<clipPath id="clip0_17_95">
<rect width="272" height="100" fill="white"/>
</clipPath>
</defs>
</svg>
