<svg width="631" height="100" viewBox="0 0 631 100" fill="none" xmlns="http://www.w3.org/2000/svg">
<g clip-path="url(#clip0_17_114)">
<mask id="mask0_17_114" style="mask-type:luminance" maskUnits="userSpaceOnUse" x="0" y="0" width="631" height="100">
<path d="M0 0H630.823V100H0V0Z" fill="white"/>
</mask>
<g mask="url(#mask0_17_114)">
<path d="M87.5258 41.2389L46.2851 64.5133L2.12398 39.646L0 40.7965V58.8496L46.2851 84.8673L87.5258 61.6814V71.2389L46.2851 94.5133L2.12398 69.646L0 70.7965V73.8938L46.2851 99.9115L92.4818 73.8938V55.8407L90.3578 54.6903L46.2851 79.469L4.95596 56.2832V46.7257L46.2851 69.9115L92.4818 43.8938V26.1062L90.1808 24.7788L46.2851 49.469L7.07994 27.5221L46.2851 5.48673L78.4989 23.6283L81.3309 22.0354V19.823L46.2851 0.088501L0 26.1062V28.9381L46.2851 54.9558L87.5258 31.6814V41.2389Z" fill="#FF3621"/>
<path d="M178.946 85.1327V5.6637H166.733V35.3982C166.733 35.8407 166.467 36.1947 166.025 36.3717C165.582 36.5486 165.14 36.3717 164.874 36.1062C160.715 31.2389 154.254 28.4956 147.174 28.4956C132.041 28.4956 120.182 41.2389 120.182 57.5221C120.182 65.4867 122.926 72.8318 127.97 78.2301C133.014 83.6283 139.829 86.5487 147.174 86.5487C154.166 86.5487 160.626 83.6283 164.874 78.5841C165.14 78.2301 165.671 78.1416 166.025 78.2301C166.467 78.4071 166.733 78.761 166.733 79.2035V85.1327H178.946ZM149.829 75.4867C140.094 75.4867 132.483 67.6106 132.483 57.5221C132.483 47.4336 140.094 39.5575 149.829 39.5575C159.564 39.5575 167.175 47.4336 167.175 57.5221C167.175 67.6106 159.564 75.4867 149.829 75.4867ZM244.258 85.0442V29.823H232.134V35.3982C232.134 35.8407 231.868 36.1947 231.426 36.3717C230.983 36.5486 230.541 36.3717 230.275 36.0177C226.204 31.1504 219.832 28.4071 212.575 28.4071C197.442 28.4071 185.583 41.1504 185.583 57.4336C185.583 73.7168 197.442 86.4602 212.575 86.4602C219.567 86.4602 226.027 83.5398 230.275 78.4071C230.541 78.0531 231.072 77.9646 231.426 78.0531C231.868 78.2301 232.134 78.5841 232.134 79.0265V85.0442H244.258ZM215.319 75.4867C205.584 75.4867 197.973 67.6106 197.973 57.5221C197.973 47.4336 205.584 39.5575 215.319 39.5575C225.054 39.5575 232.665 47.4336 232.665 57.5221C232.665 67.6106 225.054 75.4867 215.319 75.4867ZM348.068 85.1327V29.823H335.943V35.3982C335.943 35.8407 335.678 36.1947 335.235 36.3717C334.793 36.5486 334.35 36.3717 334.085 36.0177C330.014 31.1504 323.642 28.4071 316.385 28.4071C301.163 28.4071 289.393 41.1504 289.393 57.5221C289.393 73.8938 301.252 86.5487 316.385 86.5487C323.376 86.5487 329.837 83.6283 334.085 78.4956C334.35 78.1416 334.881 78.0531 335.235 78.1416C335.678 78.3186 335.943 78.6725 335.943 79.115V85.1327H348.068ZM319.129 75.4867C309.394 75.4867 301.783 67.6106 301.783 57.5221C301.783 47.4336 309.394 39.5575 319.129 39.5575C328.863 39.5575 336.474 47.4336 336.474 57.5221C336.474 67.6106 328.863 75.4867 319.129 75.4867ZM370.281 78.5841C370.37 78.5841 370.547 78.4956 370.635 78.4956C370.901 78.4956 371.255 78.6725 371.432 78.8495C375.591 83.7168 382.052 86.4602 389.131 86.4602C404.265 86.4602 416.124 73.7168 416.124 57.4336C416.124 49.469 413.38 42.1239 408.336 36.7256C403.291 31.3274 396.477 28.4071 389.131 28.4071C382.14 28.4071 375.68 31.3274 371.432 36.3717C371.166 36.7256 370.724 36.8141 370.281 36.7256C369.839 36.5487 369.573 36.1947 369.573 35.7522V5.6637H357.36V85.1327H369.573V79.5575C369.573 79.115 369.839 78.761 370.281 78.5841ZM369.042 57.5221C369.042 47.4336 376.653 39.5575 386.388 39.5575C396.123 39.5575 403.734 47.4336 403.734 57.5221C403.734 67.6106 396.123 75.4867 386.388 75.4867C376.653 75.4867 369.042 67.5221 369.042 57.5221ZM451.435 41.1504C452.585 41.1504 453.647 41.2389 454.355 41.4159V28.8495C453.913 28.761 453.116 28.6725 452.32 28.6725C445.948 28.6725 440.107 31.9469 437.01 37.1681C436.744 37.6106 436.302 37.7876 435.859 37.6106C435.417 37.5221 435.063 37.0796 435.063 36.6371V29.823H422.938V85.2212H435.151V60.7964C435.151 48.6725 441.346 41.1504 451.435 41.1504ZM474.445 29.823H462.055V85.2212H474.445V29.823ZM468.073 5.75131C463.913 5.75131 460.55 9.11414 460.55 13.2734C460.55 17.4327 463.913 20.7956 468.073 20.7956C472.232 20.7956 475.595 17.4327 475.595 13.2734C475.595 9.11414 472.232 5.75131 468.073 5.75131ZM510.729 28.4071C493.738 28.4071 481.436 40.6194 481.436 57.5221C481.436 65.7522 484.357 73.0973 489.578 78.4071C494.888 83.7168 502.322 86.6371 510.641 86.6371C517.544 86.6371 522.854 85.3097 532.943 77.8761L525.951 70.5309C520.995 73.8053 516.393 75.3982 511.88 75.3982C501.614 75.3982 493.915 67.6991 493.915 57.5221C493.915 47.3451 501.614 39.646 511.88 39.646C516.747 39.646 521.261 41.2389 525.774 44.5133L533.562 37.1681C524.447 29.3805 516.216 28.4071 510.729 28.4071ZM554.448 60.7956C554.625 60.6186 554.891 60.5301 555.156 60.5301H555.245C555.51 60.5301 555.776 60.7071 556.041 60.8841L575.6 85.1318H590.644L565.334 54.5124C564.98 54.0699 564.98 53.4504 565.422 53.0964L588.697 29.8221H573.741L553.652 49.9991C553.386 50.2646 552.944 50.3531 552.501 50.2646C552.147 50.0876 551.882 49.7336 551.882 49.2911V5.75131H539.58V85.2203H551.793V63.6274C551.793 63.3619 551.882 63.0079 552.147 62.831L554.448 60.7956Z" fill="#0B2026"/>
<path d="M610.557 86.5478C620.557 86.5478 630.734 80.4416 630.734 68.8487C630.734 61.238 625.956 56.0168 616.221 52.831L609.583 50.6186C605.07 49.1141 602.946 46.9903 602.946 44.0699C602.946 40.7071 605.955 38.4062 610.203 38.4062C614.274 38.4062 617.902 41.061 620.203 45.6628L630.027 40.3531C626.398 32.9195 618.876 28.3177 610.203 28.3177C599.229 28.3177 591.264 35.3973 591.264 45.0433C591.264 52.7425 595.866 57.8752 605.335 60.8841L612.15 63.0964C616.929 64.6009 618.964 66.5478 618.964 69.6451C618.964 74.3354 614.628 76.0168 610.911 76.0168C605.955 76.0168 601.53 72.831 599.406 67.6097L589.405 72.9195C592.68 81.3265 600.733 86.5478 610.557 86.5478ZM278.242 86.0177C282.136 86.0177 285.587 85.6637 287.534 85.3982V74.7787C285.941 74.9557 283.109 75.1327 281.428 75.1327C276.472 75.1327 272.666 74.2478 272.666 63.5398V40.7964C272.666 40.177 273.109 39.7345 273.728 39.7345H285.676V29.7345H273.728C273.109 29.7345 272.666 29.292 272.666 28.6726V12.7433H260.453V28.761C260.453 29.3805 260.011 29.823 259.391 29.823H250.896V39.823H259.391C260.011 39.823 260.453 40.2655 260.453 40.8849V66.6372C260.453 86.0177 273.374 86.0177 278.242 86.0177Z" fill="#0B2026"/>
</g>
</g>
<defs>
<clipPath id="clip0_17_114">
<rect width="631" height="100" fill="white"/>
</clipPath>
</defs>
</svg>
