<svg width="983" height="204" viewBox="0 0 983 204" fill="none" xmlns="http://www.w3.org/2000/svg">
<path d="M21 -1V204M43 -1V204M65 -1V204M87 -1V204M109 -1V204M131 -1V204M153 -1V204M175 -1V204M197 -1V204M219 -1V204M241 -1V204M263 -1V204M285 -1V204M307 -1V204M329 -1V204M351 -1V204M373 -1V204M395 -1V204M417 -1V204M439 -1V204M461 -1V204M483 -1V204M505 -1V204M527 -1V204M549 -1V204M571 -1V204M593 -1V204M615 -1V204M637 -1V204M659 -1V204M681 -1V204M703 -1V204M725 -1V204M747 -1V204M769 -1V204M791 -1V204M813 -1V204M835 -1V204M857 -1V204M879 -1V204M901 -1V204M923 -1V204M945 -1V204M967 -1V204M0 19H983M0 179H983M0 35H983M0 51H983M0 67H983M0 83H983M0 99H983M0 115H983M0 131H983M0 147H983M0 163H983" stroke="url(#paint0_linear_571_343)" stroke-width="1.2" stroke-linecap="round" stroke-linejoin="round"/>
<defs>
<linearGradient id="paint0_linear_571_343" x1="-3" y1="7" x2="979.5" y2="201" gradientUnits="userSpaceOnUse">
<stop stop-color="#DDD1CE"/>
<stop offset="1" stop-color="#FEAB97"/>
</linearGradient>
</defs>
</svg>
